<?xml version="1.0" standalone="no"?>
<!DOCTYPE svg PUBLIC "-//W3C//DTD SVG 1.1//EN" "http://www.w3.org/Graphics/SVG/1.1/DTD/svg11.dtd" >
<!--
2013-9-30: Created.
-->
<svg>
<metadata>
Created by iconfont
</metadata>
<defs>

<font id="iconfont" horiz-adv-x="1024" >
  <font-face
    font-family="iconfont"
    font-weight="500"
    font-stretch="normal"
    units-per-em="1024"
    ascent="896"
    descent="-128"
  />
    <missing-glyph />

    <glyph glyph-name="bank-fill" unicode="&#58881;" d="M85.333333 42.666667h853.333334v-85.333334H85.333333v85.333334z m85.333334 341.333333h85.333333v-298.666667H170.666667v298.666667z m213.333333 0h85.333333v-298.666667H384v298.666667z m170.666667 0h85.333333v-298.666667h-85.333333v298.666667z m213.333333 0h85.333333v-298.666667h-85.333333v298.666667zM85.333333 597.333333l426.666667 213.333334 426.666667-213.333334v-170.666666H85.333333V597.333333z m426.666667-42.666666a42.666667 42.666667 0 1 1 0 85.333333 42.666667 42.666667 0 0 1 0-85.333333z"  horiz-adv-x="1024" />


    <glyph glyph-name="bank-line" unicode="&#58882;" d="M85.333333 42.666667h853.333334v-85.333334H85.333333v85.333334z m85.333334 341.333333h85.333333v-298.666667H170.666667v298.666667z m213.333333 0h85.333333v-298.666667H384v298.666667z m170.666667 0h85.333333v-298.666667h-85.333333v298.666667z m213.333333 0h85.333333v-298.666667h-85.333333v298.666667zM85.333333 597.333333l426.666667 213.333334 426.666667-213.333334v-170.666666H85.333333V597.333333z m85.333334-52.736V512h682.666666v32.597333l-341.333333 170.666667-341.333333-170.666667zM512 554.666667a42.666667 42.666667 0 1 0 0 85.333333 42.666667 42.666667 0 0 0 0-85.333333z"  horiz-adv-x="1024" />


    <glyph glyph-name="building--fill" unicode="&#58883;" d="M896 42.666667h85.333333v-85.333334H42.666667v85.333334h85.333333V768a42.666667 42.666667 0 0 0 42.666667 42.666667h682.666666a42.666667 42.666667 0 0 0 42.666667-42.666667v-725.333333zM341.333333 426.666667v-85.333334h128v85.333334H341.333333z m0 170.666666v-85.333333h128V597.333333H341.333333z m0-341.333333v-85.333333h128v85.333333H341.333333z m213.333334 0v-85.333333h128v85.333333h-128z m0 170.666667v-85.333334h128v85.333334h-128z m0 170.666666v-85.333333h128V597.333333h-128z"  horiz-adv-x="1024" />


    <glyph glyph-name="building-line" unicode="&#58884;" d="M896 85.333333h85.333333v-85.333333H42.666667v85.333333h85.333333V725.333333a42.666667 42.666667 0 0 0 42.666667 42.666667h426.666666a42.666667 42.666667 0 0 0 42.666667-42.666667v-640h170.666667v341.333334h-85.333334V512h128a42.666667 42.666667 0 0 0 42.666667-42.666667v-384zM213.333333 682.666667v-597.333334h341.333334V682.666667H213.333333z m85.333334-256h170.666666v-85.333334H298.666667v85.333334z m0 170.666666h170.666666v-85.333333H298.666667V597.333333z"  horiz-adv-x="1024" />


    <glyph glyph-name="government-fill" unicode="&#58885;" d="M85.333333 85.333333V554.666667H42.666667V640h128V725.333333a42.666667 42.666667 0 0 0 42.666666 42.666667h597.333334a42.666667 42.666667 0 0 0 42.666666-42.666667v-85.333333h128v-85.333333h-42.666666v-469.333334h42.666666v-85.333333H42.666667v85.333333h42.666666z m469.333334 0v298.666667h-85.333334v-298.666667h85.333334z m-213.333334 0v298.666667H256v-298.666667h85.333333z m426.666667 0v298.666667h-85.333333v-298.666667h85.333333zM256 682.666667v-42.666667h512V682.666667H256z"  horiz-adv-x="1024" />


    <glyph glyph-name="building--line" unicode="&#58886;" d="M896 42.666667h85.333333v-85.333334H42.666667v85.333334h85.333333V768a42.666667 42.666667 0 0 0 42.666667 42.666667h682.666666a42.666667 42.666667 0 0 0 42.666667-42.666667v-725.333333z m-85.333333 0V725.333333H213.333333v-682.666666h597.333334zM341.333333 426.666667h128v-85.333334H341.333333v85.333334z m0 170.666666h128v-85.333333H341.333333V597.333333z m0-341.333333h128v-85.333333H341.333333v85.333333z m213.333334 0h128v-85.333333h-128v85.333333z m0 170.666667h128v-85.333334h-128v85.333334z m0 170.666666h128v-85.333333h-128V597.333333z"  horiz-adv-x="1024" />


    <glyph glyph-name="community-line" unicode="&#58887;" d="M896 0H128a42.666667 42.666667 0 0 0-42.666667 42.666667v320.554666a42.666667 42.666667 0 0 0 14.634667 32.170667L256 531.456V725.333333a42.666667 42.666667 0 0 0 42.666667 42.666667h597.333333a42.666667 42.666667 0 0 0 42.666667-42.666667v-682.666666a42.666667 42.666667 0 0 0-42.666667-42.666667zM384 85.333333h128v258.474667L341.333333 492.629333l-170.666666-148.821333V85.333333h128v170.666667h85.333333v-170.666667z m213.333333 0h256V682.666667H341.333333v-90.752c9.984 0 20.010667-3.498667 28.032-10.538667l213.333334-185.984a42.666667 42.666667 0 0 0 14.634666-32.170667V85.333333z m85.333334 341.333334h85.333333v-85.333334h-85.333333v85.333334z m0-170.666667h85.333333v-85.333333h-85.333333v85.333333z m0 341.333333h85.333333v-85.333333h-85.333333V597.333333z m-170.666667 0h85.333333v-85.333333h-85.333333V597.333333z"  horiz-adv-x="1024" />


    <glyph glyph-name="home--line" unicode="&#58888;" d="M810.666667 0H213.333333a42.666667 42.666667 0 0 0-42.666666 42.666667v384H42.666667l440.618666 400.554666a42.666667 42.666667 0 0 0 57.429334 0L981.333333 426.666667h-128v-384a42.666667 42.666667 0 0 0-42.666666-42.666667zM256 85.333333h512V505.301333l-256 232.704-256-232.704V85.333333z"  horiz-adv-x="1024" />


    <glyph glyph-name="home--fill" unicode="&#58889;" d="M853.333333 42.666667a42.666667 42.666667 0 0 0-42.666666-42.666667H213.333333a42.666667 42.666667 0 0 0-42.666666 42.666667v384H42.666667l440.618666 400.554666a42.666667 42.666667 0 0 0 57.429334 0L981.333333 426.666667h-128v-384z m-384 298.666666v-256h85.333334v256h-85.333334z"  horiz-adv-x="1024" />


    <glyph glyph-name="building--line1" unicode="&#58890;" d="M426.666667 464.597333V853.333333l469.333333-256v-597.333333H128V597.333333l298.666667-132.736z m85.333333 244.992v-376.32l-298.666667 132.736V85.333333h597.333334V546.688L512 709.546667z"  horiz-adv-x="1024" />


    <glyph glyph-name="building-fill" unicode="&#58891;" d="M896 85.333333h85.333333v-85.333333H42.666667v85.333333h85.333333V725.333333a42.666667 42.666667 0 0 0 42.666667 42.666667h426.666666a42.666667 42.666667 0 0 0 42.666667-42.666667v-640h85.333333V512h128a42.666667 42.666667 0 0 0 42.666667-42.666667v-384zM298.666667 426.666667v-85.333334h170.666666v85.333334H298.666667z m0 170.666666v-85.333333h170.666666V597.333333H298.666667z"  horiz-adv-x="1024" />


    <glyph glyph-name="community-fill" unicode="&#58892;" d="M384 85.333333h128v258.474667L341.333333 492.629333l-170.666666-148.821333V85.333333h128v170.666667h85.333333v-170.666667z m512-85.333333H128a42.666667 42.666667 0 0 0-42.666667 42.666667v320.554666a42.666667 42.666667 0 0 0 14.634667 32.170667L256 531.456V725.333333a42.666667 42.666667 0 0 0 42.666667 42.666667h597.333333a42.666667 42.666667 0 0 0 42.666667-42.666667v-682.666666a42.666667 42.666667 0 0 0-42.666667-42.666667z m-213.333333 426.666667v-85.333334h85.333333v85.333334h-85.333333z m0-170.666667v-85.333333h85.333333v85.333333h-85.333333z m0 341.333333v-85.333333h85.333333V597.333333h-85.333333z m-170.666667 0v-85.333333h85.333333V597.333333h-85.333333z"  horiz-adv-x="1024" />


    <glyph glyph-name="home--line1" unicode="&#58893;" d="M810.666667 0H213.333333a42.666667 42.666667 0 0 0-42.666666 42.666667v384H42.666667l440.618666 400.554666a42.666667 42.666667 0 0 0 57.429334 0L981.333333 426.666667h-128v-384a42.666667 42.666667 0 0 0-42.666666-42.666667zM256 85.333333h512V505.301333l-256 232.704-256-232.704V85.333333z m85.333333 170.666667h341.333334v-85.333333H341.333333v85.333333z"  horiz-adv-x="1024" />


    <glyph glyph-name="home--line2" unicode="&#58894;" d="M554.666667 85.333333h256V470.272l-298.666667 232.277333-298.666667-232.277333V85.333333h256v256h85.333334v-256z m341.333333-42.666666a42.666667 42.666667 0 0 0-42.666667-42.666667H170.666667a42.666667 42.666667 0 0 0-42.666667 42.666667V491.093333a42.666667 42.666667 0 0 0 16.469333 33.706667l341.333334 265.472a42.666667 42.666667 0 0 0 52.394666 0l341.333334-265.472a42.666667 42.666667 0 0 0 16.469333-33.706667V42.666667z"  horiz-adv-x="1024" />


    <glyph glyph-name="home--fill1" unicode="&#58895;" d="M853.333333 42.666667a42.666667 42.666667 0 0 0-42.666666-42.666667H213.333333a42.666667 42.666667 0 0 0-42.666666 42.666667v384H42.666667l440.618666 400.554666a42.666667 42.666667 0 0 0 57.429334 0L981.333333 426.666667h-128v-384z"  horiz-adv-x="1024" />


    <glyph glyph-name="home--fill2" unicode="&#58896;" d="M810.666667 42.666667a42.666667 42.666667 0 0 0-42.666667-42.666667H170.666667a42.666667 42.666667 0 0 0-42.666667 42.666667v384H0l440.618667 400.554666a42.666667 42.666667 0 0 0 57.429333 0L938.666667 426.666667h-128v-384z m-341.333334 213.333333a106.666667 106.666667 0 1 1 0 213.333333 106.666667 106.666667 0 0 1 0-213.333333z"  horiz-adv-x="1024" />


    <glyph glyph-name="home--fill3" unicode="&#58897;" d="M853.333333 42.666667a42.666667 42.666667 0 0 0-42.666666-42.666667H213.333333a42.666667 42.666667 0 0 0-42.666666 42.666667v384H42.666667l440.618666 400.554666a42.666667 42.666667 0 0 0 57.429334 0L981.333333 426.666667h-128v-384zM341.333333 256v-85.333333h341.333334v85.333333H341.333333z"  horiz-adv-x="1024" />


    <glyph glyph-name="home--fill4" unicode="&#58898;" d="M896 42.666667a42.666667 42.666667 0 0 0-42.666667-42.666667H170.666667a42.666667 42.666667 0 0 0-42.666667 42.666667V491.093333a42.666667 42.666667 0 0 0 16.469333 33.706667l341.333334 265.472a42.666667 42.666667 0 0 0 52.394666 0l341.333334-265.472a42.666667 42.666667 0 0 0 16.469333-33.706667V42.666667z m-426.666667 298.666666v-256h85.333334v256h-85.333334z"  horiz-adv-x="1024" />


    <glyph glyph-name="home--line3" unicode="&#58899;" d="M810.666667 0H213.333333a42.666667 42.666667 0 0 0-42.666666 42.666667v384H42.666667l440.618666 400.554666a42.666667 42.666667 0 0 0 57.429334 0L981.333333 426.666667h-128v-384a42.666667 42.666667 0 0 0-42.666666-42.666667z m-256 85.333333h213.333333V505.301333l-256 232.704-256-232.704V85.333333h213.333333v256h85.333334v-256z"  horiz-adv-x="1024" />


    <glyph glyph-name="home--line4" unicode="&#58900;" d="M896 42.666667a42.666667 42.666667 0 0 0-42.666667-42.666667H170.666667a42.666667 42.666667 0 0 0-42.666667 42.666667V491.093333a42.666667 42.666667 0 0 0 16.469333 33.706667l341.333334 265.472a42.666667 42.666667 0 0 0 52.394666 0l341.333334-265.472a42.666667 42.666667 0 0 0 16.469333-33.706667V42.666667z m-85.333333 42.666666V470.272l-298.666667 232.277333-298.666667-232.277333V85.333333h597.333334zM298.666667 256h426.666666v-85.333333H298.666667v85.333333z"  horiz-adv-x="1024" />


    <glyph glyph-name="home--line5" unicode="&#58901;" d="M810.666667 0H213.333333a42.666667 42.666667 0 0 0-42.666666 42.666667v384H42.666667l440.618666 400.554666a42.666667 42.666667 0 0 0 57.429334 0L981.333333 426.666667h-128v-384a42.666667 42.666667 0 0 0-42.666666-42.666667zM256 85.333333h512V505.301333l-256 232.704-256-232.704V85.333333z m128 384h256v-256H384v256z m85.333333-85.333333v-85.333333h85.333334v85.333333h-85.333334z"  horiz-adv-x="1024" />


    <glyph glyph-name="home--fill5" unicode="&#58902;" d="M896 42.666667a42.666667 42.666667 0 0 0-42.666667-42.666667H170.666667a42.666667 42.666667 0 0 0-42.666667 42.666667V491.093333a42.666667 42.666667 0 0 0 16.469333 33.706667l341.333334 265.472a42.666667 42.666667 0 0 0 52.394666 0l341.333334-265.472a42.666667 42.666667 0 0 0 16.469333-33.706667V42.666667zM298.666667 256v-85.333333h426.666666v85.333333H298.666667z"  horiz-adv-x="1024" />


    <glyph glyph-name="home--fill6" unicode="&#58903;" d="M853.333333 42.666667a42.666667 42.666667 0 0 0-42.666666-42.666667H213.333333a42.666667 42.666667 0 0 0-42.666666 42.666667v384H42.666667l440.618666 400.554666a42.666667 42.666667 0 0 0 57.429334 0L981.333333 426.666667h-128v-384zM384 469.333333v-256h256v256H384z m85.333333-85.333333h85.333334v-85.333333h-85.333334v85.333333z"  horiz-adv-x="1024" />


    <glyph glyph-name="home--line6" unicode="&#58904;" d="M810.666667 0H213.333333a42.666667 42.666667 0 0 0-42.666666 42.666667v384H42.666667l440.618666 400.554666a42.666667 42.666667 0 0 0 57.429334 0L981.333333 426.666667h-128v-384a42.666667 42.666667 0 0 0-42.666666-42.666667zM256 85.333333h512V505.301333l-256 232.704-256-232.704V85.333333z m256 170.666667a106.666667 106.666667 0 1 0 0 213.333333 106.666667 106.666667 0 0 0 0-213.333333z"  horiz-adv-x="1024" />


    <glyph glyph-name="home-fill" unicode="&#58905;" d="M896 42.666667a42.666667 42.666667 0 0 0-42.666667-42.666667H170.666667a42.666667 42.666667 0 0 0-42.666667 42.666667V491.093333a42.666667 42.666667 0 0 0 16.469333 33.706667l341.333334 265.472a42.666667 42.666667 0 0 0 52.394666 0l341.333334-265.472a42.666667 42.666667 0 0 0 16.469333-33.706667V42.666667z"  horiz-adv-x="1024" />


    <glyph glyph-name="home-gear-line" unicode="&#58906;" d="M810.666667 0H213.333333a42.666667 42.666667 0 0 0-42.666666 42.666667v384H42.666667l440.618666 400.554666a42.666667 42.666667 0 0 0 57.429334 0L981.333333 426.666667h-128v-384a42.666667 42.666667 0 0 0-42.666666-42.666667zM256 85.333333h512V505.301333l-256 232.704-256-232.704V85.333333z m110.549333 221.482667a149.674667 149.674667 0 0 0 0 69.205333l-42.282666 24.405334 42.666666 73.898666 42.282667-24.448a149.12 149.12 0 0 0 59.904 34.645334V533.333333h85.333333v-48.810666c22.698667-6.784 43.093333-18.773333 59.904-34.645334l42.282667 24.448 42.666667-73.856-42.282667-24.448a149.674667 149.674667 0 0 0 0-69.205333l42.282667-24.405333-42.666667-73.856-42.282667 24.405333a149.12 149.12 0 0 0-59.904-34.602667v-48.853333h-85.333333V198.4a149.12 149.12 0 0 0-59.904 34.602667l-42.282667-24.405334-42.666666 73.813334 42.282666 24.448z m145.237334-29.354667a64 64 0 1 1 0 127.914667 64 64 0 0 1 0-127.914667z"  horiz-adv-x="1024" />


    <glyph glyph-name="home-heart-fill" unicode="&#58907;" d="M853.333333 42.666667a42.666667 42.666667 0 0 0-42.666666-42.666667H213.333333a42.666667 42.666667 0 0 0-42.666666 42.666667v384H42.666667l440.618666 400.554666a42.666667 42.666667 0 0 0 57.429334 0L981.333333 426.666667h-128v-384z m-341.333333 128l143.317333 143.317333a96 96 0 1 1-135.765333 135.765333l-7.552-7.552-7.552 7.552a96 96 0 1 1-135.765333-135.765333L512 170.666667z"  horiz-adv-x="1024" />


    <glyph glyph-name="home-smile-fill" unicode="&#58908;" d="M853.333333 42.666667a42.666667 42.666667 0 0 0-42.666666-42.666667H213.333333a42.666667 42.666667 0 0 0-42.666666 42.666667v384H42.666667l440.618666 400.554666a42.666667 42.666667 0 0 0 57.429334 0L981.333333 426.666667h-128v-384zM320 341.333333a192 192 0 1 1 384 0h-85.333333a106.666667 106.666667 0 1 0-213.333334 0h-85.333333z"  horiz-adv-x="1024" />


    <glyph glyph-name="home-line" unicode="&#58909;" d="M896 42.666667a42.666667 42.666667 0 0 0-42.666667-42.666667H170.666667a42.666667 42.666667 0 0 0-42.666667 42.666667V491.093333a42.666667 42.666667 0 0 0 16.469333 33.706667l341.333334 265.472a42.666667 42.666667 0 0 0 52.394666 0l341.333334-265.472a42.666667 42.666667 0 0 0 16.469333-33.706667V42.666667z m-85.333333 42.666666V470.272l-298.666667 232.277333-298.666667-232.277333V85.333333h597.333334z"  horiz-adv-x="1024" />


    <glyph glyph-name="home-gear-fill" unicode="&#58910;" d="M853.333333 42.666667a42.666667 42.666667 0 0 0-42.666666-42.666667H213.333333a42.666667 42.666667 0 0 0-42.666666 42.666667v384H42.666667l440.618666 400.554666a42.666667 42.666667 0 0 0 57.429334 0L981.333333 426.666667h-128v-384zM366.592 306.858667l-42.282667-24.405334 42.666667-73.941333 42.368 24.448a149.333333 149.333333 0 0 1 59.946667-34.602667v-48.853333h85.418666V198.4a149.333333 149.333333 0 0 1 59.946667 34.56l42.325333-24.405333L699.733333 282.453333l-42.282666 24.405334a149.504 149.504 0 0 1 0 69.12l42.282666 24.448-42.666666 73.941333-42.368-24.448A149.333333 149.333333 0 0 1 554.666667 484.48V533.333333h-85.418667v-48.810666a149.333333 149.333333 0 0 1-59.946667-34.602667l-42.325333 24.448L324.266667 400.384l42.282666-24.405333a149.504 149.504 0 0 1 0-69.12z m145.408-29.44a64 64 0 1 0-0.085333 128.042666 64 64 0 0 0 0.085333-128z"  horiz-adv-x="1024" />


    <glyph glyph-name="home-wifi-line" unicode="&#58911;" d="M256 85.333333h512V505.301333l-256 232.704-256-232.704V85.333333z m554.666667-85.333333H213.333333a42.666667 42.666667 0 0 0-42.666666 42.666667v384H42.666667l440.618666 400.554666a42.666667 42.666667 0 0 0 57.429334 0L981.333333 426.666667h-128v-384a42.666667 42.666667 0 0 0-42.666666-42.666667zM341.333333 469.333333a298.666667 298.666667 0 0 0 298.666667-298.666666h-85.333333a213.333333 213.333333 0 0 1-213.333334 213.333333v85.333333z m0-170.666666a128 128 0 0 0 128-128H341.333333v128z"  horiz-adv-x="1024" />


    <glyph glyph-name="home-wifi-fill" unicode="&#58912;" d="M853.333333 42.666667a42.666667 42.666667 0 0 0-42.666666-42.666667H213.333333a42.666667 42.666667 0 0 0-42.666666 42.666667v384H42.666667l440.618666 400.554666a42.666667 42.666667 0 0 0 57.429334 0L981.333333 426.666667h-128v-384zM298.666667 426.666667v-85.333334a213.333333 213.333333 0 0 0 213.333333-213.333333h85.333333a298.666667 298.666667 0 0 1-298.666666 298.666667z m0-170.666667v-128h128a128 128 0 0 1-128 128z"  horiz-adv-x="1024" />


    <glyph glyph-name="building--fill1" unicode="&#58913;" d="M426.666667 464.597333V853.333333l469.333333-256v-597.333333H128V597.333333z"  horiz-adv-x="1024" />


    <glyph glyph-name="hotel-fill" unicode="&#58914;" d="M725.333333 85.333333h85.333334v341.333334h-256v-341.333334h85.333333v256h85.333333v-256zM128 85.333333V725.333333a42.666667 42.666667 0 0 0 42.666667 42.666667h597.333333a42.666667 42.666667 0 0 0 42.666667-42.666667v-213.333333h85.333333v-426.666667h42.666667v-85.333333H85.333333v85.333333h42.666667z m170.666667 341.333334v-85.333334h85.333333v85.333334H298.666667z m0-170.666667v-85.333333h85.333333v85.333333H298.666667z m0 341.333333v-85.333333h85.333333V597.333333H298.666667z"  horiz-adv-x="1024" />


    <glyph glyph-name="government-line" unicode="&#58915;" d="M853.333333 640h128v-85.333333h-42.666666v-469.333334h42.666666v-85.333333H42.666667v85.333333h42.666666V554.666667H42.666667V640h128V725.333333a42.666667 42.666667 0 0 0 42.666666 42.666667h597.333334a42.666667 42.666667 0 0 0 42.666666-42.666667v-85.333333z m0-85.333333H170.666667v-469.333334h128v298.666667h85.333333v-298.666667h85.333333v298.666667h85.333334v-298.666667h85.333333v298.666667h85.333333v-298.666667h128V554.666667zM256 682.666667v-42.666667h512V682.666667H256z"  horiz-adv-x="1024" />


    <glyph glyph-name="hospital-line" unicode="&#58916;" d="M341.333333 42.666667v256h341.333334v-256h128V725.333333H213.333333v-682.666666h128z m85.333334 0h170.666666v170.666666h-170.666666v-170.666666z m469.333333 0h85.333333v-85.333334H42.666667v85.333334h85.333333V768a42.666667 42.666667 0 0 0 42.666667 42.666667h682.666666a42.666667 42.666667 0 0 0 42.666667-42.666667v-725.333333zM469.333333 554.666667V640h85.333334v-85.333333h85.333333v-85.333334h-85.333333v-85.333333h-85.333334v85.333333H384V554.666667h85.333333z"  horiz-adv-x="1024" />


    <glyph glyph-name="hospital-fill" unicode="&#58967;" d="M896 42.666667h85.333333v-85.333334H42.666667v85.333334h85.333333V768a42.666667 42.666667 0 0 0 42.666667 42.666667h682.666666a42.666667 42.666667 0 0 0 42.666667-42.666667v-725.333333zM469.333333 554.666667H384v-85.333334h85.333333v-85.333333h85.333334v85.333333h85.333333V554.666667h-85.333333V640h-85.333334v-85.333333z m128-512h85.333334v256H341.333333v-256h85.333334v170.666666h170.666666v-170.666666z"  horiz-adv-x="1024" />


    <glyph glyph-name="store--fill" unicode="&#58968;" d="M896 341.333333v-298.666666a42.666667 42.666667 0 0 0-42.666667-42.666667H170.666667a42.666667 42.666667 0 0 0-42.666667 42.666667v298.666666H85.333333v85.333334l42.666667 213.333333h768l42.666667-213.333333v-85.333334h-42.666667zM213.333333 341.333333v-256h597.333334v256H213.333333z m42.666667-42.666666h341.333333v-128H256v128zM128 768h768v-85.333333H128V768z"  horiz-adv-x="1024" />


    <glyph glyph-name="building--line2" unicode="&#58969;" d="M128 85.333333V652.8a42.666667 42.666667 0 0 0 28.074667 40.106667l412.629333 150.016a21.333333 21.333333 0 0 0 28.629333-20.053334v-211.328l269.482667-89.813333a42.666667 42.666667 0 0 0 29.184-40.490667V85.333333h85.333333v-85.333333H42.666667v85.333333h85.333333z m85.333333 0h298.666667V731.52L213.333333 622.890667V85.333333z m597.333334 0v365.141334l-213.333334 71.125333V85.333333h213.333334z"  horiz-adv-x="1024" />


    <glyph glyph-name="store--fill1" unicode="&#58970;" d="M938.666667 42.666667v-85.333334H85.333333v85.333334h42.666667v288.341333A191.829333 191.829333 0 0 0 42.666667 490.666667c0 35.285333 9.557333 69.290667 27.008 98.261333L185.386667 789.333333a42.666667 42.666667 0 0 0 36.949333 21.333334H801.706667a42.666667 42.666667 0 0 0 36.949333-21.333334l115.285333-199.765333A191.829333 191.829333 0 0 0 896 331.008V42.666667h42.666667zM246.997333 725.333333L143.189333 545.578667a106.666667 106.666667 0 0 1 190.549334-94.549334c14.293333 35.712 64.853333 35.712 79.189333 0a106.666667 106.666667 0 0 1 198.144 0c14.293333 35.712 64.853333 35.712 79.189333 0a106.666667 106.666667 0 1 1 190.165334 95.232L776.96 725.333333H247.04z"  horiz-adv-x="1024" />


    <glyph glyph-name="home-smile-line" unicode="&#58971;" d="M256 85.333333h512V505.301333l-256 232.704-256-232.704V85.333333z m554.666667-85.333333H213.333333a42.666667 42.666667 0 0 0-42.666666 42.666667v384H42.666667l440.618666 400.554666a42.666667 42.666667 0 0 0 57.429334 0L981.333333 426.666667h-128v-384a42.666667 42.666667 0 0 0-42.666666-42.666667zM320 341.333333h85.333333a106.666667 106.666667 0 1 1 213.333334 0h85.333333a192 192 0 1 0-384 0z"  horiz-adv-x="1024" />


    <glyph glyph-name="store--line" unicode="&#58972;" d="M896 331.008V42.666667h42.666667v-85.333334H85.333333v85.333334h42.666667v288.341333A191.829333 191.829333 0 0 0 42.666667 490.666667c0 35.285333 9.557333 69.290667 27.008 98.261333L185.386667 789.333333a42.666667 42.666667 0 0 0 36.949333 21.333334H801.706667a42.666667 42.666667 0 0 0 36.949333-21.333334l115.285333-199.765333A191.829333 191.829333 0 0 0 896 331.008z m-85.333333-31.146667a191.829333 191.829333 0 0 0-160 58.026667A191.829333 191.829333 0 0 0 512 298.624a191.829333 191.829333 0 0 0-138.666667 59.178667A191.829333 191.829333 0 0 0 213.333333 299.818667V42.666667h597.333334v257.152zM246.997333 725.333333L143.189333 545.578667a106.666667 106.666667 0 0 1 190.549334-94.549334c14.293333 35.712 64.853333 35.712 79.189333 0a106.666667 106.666667 0 0 1 198.144 0c14.293333 35.712 64.853333 35.712 79.189333 0a106.666667 106.666667 0 1 1 190.165334 95.232L776.96 725.333333H247.04z"  horiz-adv-x="1024" />


    <glyph glyph-name="hotel-line" unicode="&#58973;" d="M938.666667 0H85.333333v85.333333h42.666667V725.333333a42.666667 42.666667 0 0 0 42.666667 42.666667h597.333333a42.666667 42.666667 0 0 0 42.666667-42.666667v-213.333333h85.333333v-426.666667h42.666667v-85.333333z m-213.333334 85.333333h85.333334v341.333334h-256v-341.333334h85.333333v256h85.333333v-256z m0 426.666667V682.666667H213.333333v-597.333334h256V512h256zM298.666667 426.666667h85.333333v-85.333334H298.666667v85.333334z m0-170.666667h85.333333v-85.333333H298.666667v85.333333z m0 341.333333h85.333333v-85.333333H298.666667V597.333333z"  horiz-adv-x="1024" />


    <glyph glyph-name="store--line1" unicode="&#58974;" d="M896 341.333333v-298.666666a42.666667 42.666667 0 0 0-42.666667-42.666667H170.666667a42.666667 42.666667 0 0 0-42.666667 42.666667v298.666666H85.333333v85.333334l42.666667 213.333333h768l42.666667-213.333333v-85.333334h-42.666667zM213.333333 341.333333v-256h597.333334v256H213.333333z m-40.96 85.333334h679.253334l-25.6 128H197.973333l-25.6-128zM256 298.666667h341.333333v-128H256v128zM128 768h768v-85.333333H128V768z"  horiz-adv-x="1024" />


    <glyph glyph-name="store-line" unicode="&#58975;" d="M896 399.104V0a42.666667 42.666667 0 0 0-42.666667-42.666667H170.666667a42.666667 42.666667 0 0 0-42.666667 42.666667v399.104A170.026667 170.026667 0 0 0 85.333333 512V768a42.666667 42.666667 0 0 0 42.666667 42.666667h768a42.666667 42.666667 0 0 0 42.666667-42.666667v-256a170.24 170.24 0 0 0-42.666667-112.896z m-85.333333-52.394667a170.965333 170.965333 0 0 0-170.666667 52.394667A170.24 170.24 0 0 0 512 341.333333a170.24 170.24 0 0 0-128 57.770667 170.24 170.24 0 0 0-170.666667-52.394667V42.666667h597.333334v304.042666zM597.333333 512a42.666667 42.666667 0 0 0 85.333334 0 85.333333 85.333333 0 1 1 170.666666 0V725.333333H170.666667v-213.333333a85.333333 85.333333 0 1 1 170.666666 0 42.666667 42.666667 0 1 0 85.333334 0 85.333333 85.333333 0 1 1 170.666666 0z"  horiz-adv-x="1024" />


    <glyph glyph-name="home-heart-line" unicode="&#58976;" d="M853.333333 42.666667a42.666667 42.666667 0 0 0-42.666666-42.666667H213.333333a42.666667 42.666667 0 0 0-42.666666 42.666667v384H42.666667l440.618666 400.554666a42.666667 42.666667 0 0 0 57.429334 0L981.333333 426.666667h-128v-384z m-85.333333 42.666666V505.301333l-256 232.704-256-232.704V85.333333h512z m-256 85.333334l-143.317333 143.317333a96 96 0 1 0 135.765333 135.765333l7.552-7.552 7.552 7.552a96 96 0 1 0 135.765333-135.765333L512 170.666667z"  horiz-adv-x="1024" />


    <glyph glyph-name="building--fill2" unicode="&#58977;" d="M512 85.333333h85.333333V640l272.810667-116.906667a42.666667 42.666667 0 0 0 25.856-39.253333V85.333333h85.333333v-85.333333H42.666667v85.333333h85.333333V654.933333a42.666667 42.666667 0 0 0 25.344 38.997334l328.661333 146.090666A21.333333 21.333333 0 0 0 512 820.48V85.333333z"  horiz-adv-x="1024" />


    <glyph glyph-name="store-fill" unicode="&#58978;" d="M896 399.104V0a42.666667 42.666667 0 0 0-42.666667-42.666667H170.666667a42.666667 42.666667 0 0 0-42.666667 42.666667v399.104A170.026667 170.026667 0 0 0 85.333333 512V768a42.666667 42.666667 0 0 0 42.666667 42.666667h768a42.666667 42.666667 0 0 0 42.666667-42.666667v-256a170.24 170.24 0 0 0-42.666667-112.896zM597.333333 512a42.666667 42.666667 0 0 0 85.333334 0 85.333333 85.333333 0 1 1 170.666666 0V725.333333H170.666667v-213.333333a85.333333 85.333333 0 1 1 170.666666 0 42.666667 42.666667 0 1 0 85.333334 0 85.333333 85.333333 0 1 1 170.666666 0z"  horiz-adv-x="1024" />


    <glyph glyph-name="home-smile--fill" unicode="&#58979;" d="M896 42.666667a42.666667 42.666667 0 0 0-42.666667-42.666667H170.666667a42.666667 42.666667 0 0 0-42.666667 42.666667V498.602667a42.666667 42.666667 0 0 0 16.213333 33.493333l341.333334 269.269333a42.666667 42.666667 0 0 0 52.906666 0l341.333334-269.226666a42.666667 42.666667 0 0 0 16.213333-33.536V42.666667zM298.666667 384a213.333333 213.333333 0 0 1 426.666666 0h-85.333333a128 128 0 0 0-256 0H298.666667z"  horiz-adv-x="1024" />


    <glyph glyph-name="home-smile--line" unicode="&#58980;" d="M810.666667 85.333333V477.909333l-298.666667 235.605334-298.666667-235.605334V85.333333h597.333334z m85.333333-42.666666a42.666667 42.666667 0 0 0-42.666667-42.666667H170.666667a42.666667 42.666667 0 0 0-42.666667 42.666667V498.602667a42.666667 42.666667 0 0 0 16.213333 33.493333l341.333334 269.269333a42.666667 42.666667 0 0 0 52.906666 0l341.333334-269.226666a42.666667 42.666667 0 0 0 16.213333-33.536V42.666667zM298.666667 384h85.333333a128 128 0 0 1 256 0h85.333333a213.333333 213.333333 0 0 0-426.666666 0z"  horiz-adv-x="1024" />


    <glyph glyph-name="archive-drawer-line" unicode="&#58981;" d="M128 768.341333C128 791.722667 146.986667 810.666667 170.368 810.666667h683.264a42.666667 42.666667 0 0 0 42.368-42.325334v-768.682666a42.368 42.368 0 0 0-42.368-42.325334H170.368A42.666667 42.666667 0 0 0 128-0.341333V768.341333zM810.666667 426.666667V725.333333H213.333333v-298.666666h597.333334z m0-85.333334H213.333333v-298.666666h597.333334v298.666666zM384 640h256v-85.333333H384V640z m0-384h256v-85.333333H384v85.333333z"  horiz-adv-x="1024" />


    <glyph glyph-name="attachment-line" unicode="&#58982;" d="M597.333333 320V554.666667a170.666667 170.666667 0 1 1-341.333333 0v-234.666667a277.333333 277.333333 0 1 1 554.666667 0V725.333333h85.333333v-405.333333a362.666667 362.666667 0 1 0-725.333333 0V554.666667a256 256 0 1 0 512 0v-234.666667a149.333333 149.333333 0 0 0-298.666667 0V554.666667h85.333333v-234.666667a64 64 0 0 1 128 0z"  horiz-adv-x="1024" />


    <glyph glyph-name="archive-line" unicode="&#58983;" d="M128 469.333333H85.333333V725.205333C85.333333 748.842667 104.746667 768 127.658667 768h768.682666A42.24 42.24 0 0 0 938.666667 725.205333V469.333333h-42.666667v-426.709333a42.496 42.496 0 0 0-42.368-42.624H170.368A42.496 42.496 0 0 0 128 42.624V469.333333z m682.666667 0H213.333333v-384h597.333334v384zM170.666667 682.666667v-128h682.666666V682.666667H170.666667z m213.333333-298.666667h256v-85.333333H384v85.333333z"  horiz-adv-x="1024" />


    <glyph glyph-name="at-fill" unicode="&#58984;" d="M512-42.666667C276.352-42.666667 85.333333 148.352 85.333333 384S276.352 810.666667 512 810.666667s426.666667-191.018667 426.666667-426.666667-191.018667-426.666667-426.666667-426.666667z m341.333333 426.666667a341.333333 341.333333 0 1 1-169.301333-294.869333l-43.008 73.685333A256 256 0 1 0 768 384v-42.666667a42.666667 42.666667 0 0 0-85.333333 0V512h-57.770667a170.666667 170.666667 0 1 1 2.816-253.44A128 128 0 0 1 853.333333 341.333333v42.666667z m-341.333333 85.333333a85.333333 85.333333 0 1 0 0-170.666666 85.333333 85.333333 0 0 0 0 170.666666z"  horiz-adv-x="1024" />


    <glyph glyph-name="archive-drawer-fill" unicode="&#58985;" d="M128 341.333333h768v-341.418666a42.496 42.496 0 0 0-42.368-42.581334H170.368A42.453333 42.453333 0 0 0 128-0.085333V341.333333zM128 768.085333C128 791.594667 146.986667 810.666667 170.368 810.666667h683.264c23.381333 0 42.368-19.029333 42.368-42.581334V426.666667H128V768.085333zM384 682.666667v-85.333334h256V682.666667H384z m0-469.333334v-85.333333h256v85.333333H384z"  horiz-adv-x="1024" />


    <glyph glyph-name="at-line" unicode="&#58986;" d="M853.333333 384a341.333333 341.333333 0 1 1-151.978666-284.032l47.36-70.997333A424.661333 424.661333 0 0 0 512-42.666667C276.352-42.666667 85.333333 148.352 85.333333 384S276.352 810.666667 512 810.666667s426.666667-191.018667 426.666667-426.666667v-64a149.333333 149.333333 0 0 0-272.896-83.882667A213.333333 213.333333 0 1 0 640 554.666667h85.333333v-234.666667a64 64 0 0 1 128 0V384z m-341.333333 128a128 128 0 1 1 0-256 128 128 0 0 1 0 256z"  horiz-adv-x="1024" />


    <glyph glyph-name="archive-fill" unicode="&#58987;" d="M128 469.333333h768v-426.837333c0-23.466667-18.986667-42.496-42.368-42.496H170.368A42.410667 42.410667 0 0 0 128 42.496V469.333333z m256-85.333333v-85.333333h256v85.333333H384zM85.333333 725.333333c0 23.552 19.413333 42.666667 42.325334 42.666667h768.682666c23.381333 0 42.325333-18.944 42.325334-42.666667v-170.666666H85.333333V725.333333z"  horiz-adv-x="1024" />


    <glyph glyph-name="bar-chart--fill" unicode="&#58988;" d="M85.333333 341.333333h256v-341.333333H85.333333v341.333333zM384 768h256v-768H384V768z m298.666667-213.333333h256v-554.666667h-256V554.666667z"  horiz-adv-x="1024" />


    <glyph glyph-name="bar-chart-grouped-line" unicode="&#58989;" d="M85.333333 384h85.333334v-384H85.333333v384z m128-85.333333h85.333334v-298.666667H213.333333v298.666667z m469.333334 256h85.333333v-554.666667h-85.333333V554.666667z m128-85.333334h85.333333v-469.333333h-85.333333V469.333333zM384 810.666667h85.333333v-810.666667H384V810.666667z m128-85.333334h85.333333v-725.333333h-85.333333V725.333333z"  horiz-adv-x="1024" />


    <glyph glyph-name="bar-chart-box-line" unicode="&#58990;" d="M128 768h768a42.666667 42.666667 0 0 0 42.666667-42.666667v-682.666666a42.666667 42.666667 0 0 0-42.666667-42.666667H128a42.666667 42.666667 0 0 0-42.666667 42.666667V725.333333a42.666667 42.666667 0 0 0 42.666667 42.666667z m42.666667-85.333333v-597.333334h682.666666V682.666667H170.666667z m128-341.333334h85.333333v-170.666666H298.666667v170.666666z m170.666666 256h85.333334v-426.666666h-85.333334V597.333333z m170.666667-128h85.333333v-298.666666h-85.333333v298.666666z"  horiz-adv-x="1024" />


    <glyph glyph-name="bar-chart-box-fill" unicode="&#58991;" d="M128 768h768a42.666667 42.666667 0 0 0 42.666667-42.666667v-682.666666a42.666667 42.666667 0 0 0-42.666667-42.666667H128a42.666667 42.666667 0 0 0-42.666667 42.666667V725.333333a42.666667 42.666667 0 0 0 42.666667 42.666667z m170.666667-426.666667v-170.666666h85.333333v170.666666H298.666667z m170.666666 256v-426.666666h85.333334V597.333333h-85.333334z m170.666667-128v-298.666666h85.333333v298.666666h-85.333333z"  horiz-adv-x="1024" />


    <glyph glyph-name="award-line" unicode="&#58992;" d="M725.333333 245.546667v-293.205334a21.333333 21.333333 0 0 0-32.298666-18.304L512 42.666667l-181.034667-108.629334a21.333333 21.333333 0 0 0-32.298666 18.346667v293.12a341.333333 341.333333 0 1 0 426.666666 0z m-341.333333-50.048v-130.133334l128 76.8 128-76.8v130.133334A340.394667 340.394667 0 0 0 512 170.666667a340.394667 340.394667 0 0 0-128 24.832zM512 256a256 256 0 1 1 0 512 256 256 0 0 1 0-512z"  horiz-adv-x="1024" />


    <glyph glyph-name="award-fill" unicode="&#58993;" d="M725.333333 245.546667v-293.205334a21.333333 21.333333 0 0 0-32.298666-18.304L512 42.666667l-181.034667-108.629334a21.333333 21.333333 0 0 0-32.298666 18.346667v293.12a341.333333 341.333333 0 1 0 426.666666 0zM512 256a256 256 0 1 1 0 512 256 256 0 0 1 0-512z m0 85.333333a170.666667 170.666667 0 1 0 0 341.333334 170.666667 170.666667 0 0 0 0-341.333334z"  horiz-adv-x="1024" />


    <glyph glyph-name="bar-chart--line" unicode="&#58994;" d="M85.333333 341.333333h256v-341.333333H85.333333v341.333333z m597.333334 213.333334h256v-554.666667h-256V554.666667zM384 768h256v-768H384V768zM170.666667 256v-170.666667h85.333333v170.666667H170.666667z m298.666666 426.666667v-597.333334h85.333334V682.666667h-85.333334z m298.666667-213.333334v-384h85.333333v384h-85.333333z"  horiz-adv-x="1024" />


    <glyph glyph-name="bar-chart-fill" unicode="&#58995;" d="M128 384h170.666667v-384H128v384z m597.333333 170.666667h170.666667v-554.666667h-170.666667V554.666667z m-298.666666 256h170.666666v-810.666667h-170.666666V810.666667z"  horiz-adv-x="1024" />


    <glyph glyph-name="bar-chart-line" unicode="&#58996;" d="M128 384h85.333333v-384H128v384z m682.666667 170.666667h85.333333v-554.666667h-85.333333V554.666667z m-341.333334 256h85.333334v-810.666667h-85.333334V810.666667z"  horiz-adv-x="1024" />


    <glyph glyph-name="bar-chart-horizontal-line" unicode="&#58997;" d="M512 768v-85.333333H128V768h384z m170.666667-682.666667v-85.333333H128v85.333333h554.666667z m256 341.333334v-85.333334H128v85.333334h810.666667z"  horiz-adv-x="1024" />


    <glyph glyph-name="bookmark--fill" unicode="&#58998;" d="M170.666667 810.666667h682.666666a42.666667 42.666667 0 0 0 42.666667-42.666667v-822.442667a21.333333 21.333333 0 0 0-30.037333-19.498666L512 84.053333l-353.962667-157.952A21.333333 21.333333 0 0 0 128-54.442667V768a42.666667 42.666667 0 0 0 42.666667 42.666667z m341.333333-490.666667l125.397333-65.92-23.936 139.605333 101.418667 98.901334-140.202667 20.394666L512 640l-62.72-127.018667-140.16-20.394666 101.418667-98.901334-23.893334-139.605333L512 320z"  horiz-adv-x="1024" />


    <glyph glyph-name="bar-chart-horizontal-fill" unicode="&#58999;" d="M512 768v-170.666667H128V768h384z m170.666667-597.333333v-170.666667H128v170.666667h554.666667z m256 298.666666v-170.666666H128v170.666666h810.666667z"  horiz-adv-x="1024" />


    <glyph glyph-name="bookmark-line" unicode="&#59000;" d="M213.333333 810.666667h597.333334a42.666667 42.666667 0 0 0 42.666666-42.666667v-816.768a21.333333 21.333333 0 0 0-32.682666-18.090667L512 126.72l-308.650667-193.536A21.333333 21.333333 0 0 0 170.666667-48.768V768a42.666667 42.666667 0 0 0 42.666666 42.666667z m554.666667-85.333334H256v-658.432l256 160.469334 256-160.469334V725.333333z"  horiz-adv-x="1024" />


    <glyph glyph-name="bookmark--fill1" unicode="&#59001;" d="M213.333333 810.666667h597.333334a42.666667 42.666667 0 0 0 42.666666-42.666667v-816.768a21.333333 21.333333 0 0 0-32.682666-18.090667L512 126.72l-308.650667-193.536A21.333333 21.333333 0 0 0 170.666667-48.768V768a42.666667 42.666667 0 0 0 42.666666 42.666667z m128-298.666667v-85.333333h341.333334V512H341.333333z"  horiz-adv-x="1024" />


    <glyph glyph-name="bookmark-fill" unicode="&#59002;" d="M213.333333 810.666667h597.333334a42.666667 42.666667 0 0 0 42.666666-42.666667v-816.768a21.333333 21.333333 0 0 0-32.682666-18.090667L512 126.72l-308.650667-193.536A21.333333 21.333333 0 0 0 170.666667-48.768V768a42.666667 42.666667 0 0 0 42.666666 42.666667z"  horiz-adv-x="1024" />


    <glyph glyph-name="bookmark--line" unicode="&#59003;" d="M213.333333 810.666667h597.333334a42.666667 42.666667 0 0 0 42.666666-42.666667v-816.768a21.333333 21.333333 0 0 0-32.682666-18.090667L512 126.72l-308.650667-193.536A21.333333 21.333333 0 0 0 170.666667-48.768V768a42.666667 42.666667 0 0 0 42.666666 42.666667z m554.666667-85.333334H256v-658.432l256 160.469334 256-160.469334V725.333333zM341.333333 512h341.333334v-85.333333H341.333333V512z"  horiz-adv-x="1024" />


    <glyph glyph-name="briefcase--fill" unicode="&#59004;" d="M298.666667 682.666667V810.666667a42.666667 42.666667 0 0 0 42.666666 42.666666h341.333334a42.666667 42.666667 0 0 0 42.666666-42.666666v-128h170.666667a42.666667 42.666667 0 0 0 42.666667-42.666667v-597.333333a42.666667 42.666667 0 0 0-42.666667-42.666667H128a42.666667 42.666667 0 0 0-42.666667 42.666667V640a42.666667 42.666667 0 0 0 42.666667 42.666667h170.666667z m426.666666-85.333334v-213.333333h128V597.333333h-128z m-85.333333 0H384v-213.333333h256V597.333333zM298.666667 597.333333H170.666667v-213.333333h128V597.333333z m85.333333 170.666667v-85.333333h256V768H384z"  horiz-adv-x="1024" />


    <glyph glyph-name="briefcase--line" unicode="&#59005;" d="M298.666667 682.666667V810.666667a42.666667 42.666667 0 0 0 42.666666 42.666666h341.333334a42.666667 42.666667 0 0 0 42.666666-42.666666v-128h170.666667a42.666667 42.666667 0 0 0 42.666667-42.666667v-597.333333a42.666667 42.666667 0 0 0-42.666667-42.666667H128a42.666667 42.666667 0 0 0-42.666667 42.666667V640a42.666667 42.666667 0 0 0 42.666667 42.666667h170.666667z m85.333333-341.333334H170.666667v-256h682.666666v256h-213.333333v-128H384v128z m469.333333 256H170.666667v-170.666666h213.333333V512h256v-85.333333h213.333333V597.333333z m-384-170.666666v-128h85.333334v128h-85.333334zM384 768v-85.333333h256V768H384z"  horiz-adv-x="1024" />


    <glyph glyph-name="briefcase--line1" unicode="&#59006;" d="M298.666667 682.666667V810.666667a42.666667 42.666667 0 0 0 42.666666 42.666666h341.333334a42.666667 42.666667 0 0 0 42.666666-42.666666v-128h170.666667a42.666667 42.666667 0 0 0 42.666667-42.666667v-597.333333a42.666667 42.666667 0 0 0-42.666667-42.666667H128a42.666667 42.666667 0 0 0-42.666667 42.666667V640a42.666667 42.666667 0 0 0 42.666667 42.666667h170.666667z m554.666666-341.333334H170.666667v-256h682.666666v256z m0 256H170.666667v-170.666666h128V512h85.333333v-85.333333h256V512h85.333333v-85.333333h128V597.333333zM384 768v-85.333333h256V768H384z"  horiz-adv-x="1024" />


    <glyph glyph-name="briefcase--line2" unicode="&#59007;" d="M298.666667 682.666667V810.666667a42.666667 42.666667 0 0 0 42.666666 42.666666h341.333334a42.666667 42.666667 0 0 0 42.666666-42.666666v-128h170.666667a42.666667 42.666667 0 0 0 42.666667-42.666667v-597.333333a42.666667 42.666667 0 0 0-42.666667-42.666667H128a42.666667 42.666667 0 0 0-42.666667 42.666667V640a42.666667 42.666667 0 0 0 42.666667 42.666667h170.666667z m341.333333-85.333334H384v-512h256V597.333333zM298.666667 597.333333H170.666667v-512h128V597.333333z m426.666666 0v-512h128V597.333333h-128zM384 768v-85.333333h256V768H384z"  horiz-adv-x="1024" />


    <glyph glyph-name="briefcase--fill1" unicode="&#59008;" d="M298.666667 682.666667V810.666667a42.666667 42.666667 0 0 0 42.666666 42.666666h341.333334a42.666667 42.666667 0 0 0 42.666666-42.666666v-128h170.666667a42.666667 42.666667 0 0 0 42.666667-42.666667v-597.333333a42.666667 42.666667 0 0 0-42.666667-42.666667H128a42.666667 42.666667 0 0 0-42.666667 42.666667V640a42.666667 42.666667 0 0 0 42.666667 42.666667h170.666667z m426.666666-341.333334v128h-85.333333v-128H384v128H298.666667v-128H170.666667v-256h682.666666v256h-128zM384 768v-85.333333h256V768H384z"  horiz-adv-x="1024" />


    <glyph glyph-name="briefcase--fill2" unicode="&#59009;" d="M384 341.333333v-128h256v128h298.666667v-298.666666a42.666667 42.666667 0 0 0-42.666667-42.666667H128a42.666667 42.666667 0 0 0-42.666667 42.666667v298.666666h298.666667z m85.333333 85.333334h85.333334v-128h-85.333334v128zM298.666667 682.666667V810.666667a42.666667 42.666667 0 0 0 42.666666 42.666666h341.333334a42.666667 42.666667 0 0 0 42.666666-42.666666v-128h170.666667a42.666667 42.666667 0 0 0 42.666667-42.666667v-213.333333h-298.666667V512H384v-85.333333H85.333333V640a42.666667 42.666667 0 0 0 42.666667 42.666667h170.666667z m85.333333 85.333333v-85.333333h256V768H384z"  horiz-adv-x="1024" />


    <glyph glyph-name="bookmark--line1" unicode="&#59010;" d="M170.666667 810.666667h682.666666a42.666667 42.666667 0 0 0 42.666667-42.666667v-822.442667a21.333333 21.333333 0 0 0-30.037333-19.498666L512 84.053333l-353.962667-157.952A21.333333 21.333333 0 0 0 128-54.442667V768a42.666667 42.666667 0 0 0 42.666667 42.666667z m640-766.506667V725.333333H213.333333v-681.173333l298.666667 133.290667 298.666667-133.290667zM512 320l-125.397333-65.92 23.936 139.605333-101.418667 98.901334 140.202667 20.394666L512 640l62.72-127.018667 140.16-20.394666-101.418667-98.901334 23.893334-139.605333L512 320z"  horiz-adv-x="1024" />


    <glyph glyph-name="briefcase--line3" unicode="&#59011;" d="M298.666667 682.666667V810.666667a42.666667 42.666667 0 0 0 42.666666 42.666666h341.333334a42.666667 42.666667 0 0 0 42.666666-42.666666v-128h170.666667a42.666667 42.666667 0 0 0 42.666667-42.666667v-597.333333a42.666667 42.666667 0 0 0-42.666667-42.666667H128a42.666667 42.666667 0 0 0-42.666667 42.666667V640a42.666667 42.666667 0 0 0 42.666667 42.666667h170.666667z m384-426.666667h-128v-42.666667h-85.333334v42.666667H341.333333v-170.666667h341.333334v170.666667zM341.333333 597.333333v-256h128v42.666667h85.333334v-42.666667h128V597.333333H341.333333z m-85.333333-256V597.333333H170.666667v-256h85.333333z m512 0h85.333333V597.333333h-85.333333v-256zM256 256H170.666667v-170.666667h85.333333v170.666667z m512 0v-170.666667h85.333333v170.666667h-85.333333zM384 768v-85.333333h256V768H384z"  horiz-adv-x="1024" />


    <glyph glyph-name="briefcase--fill3" unicode="&#59012;" d="M298.666667 682.666667V810.666667a42.666667 42.666667 0 0 0 42.666666 42.666666h341.333334a42.666667 42.666667 0 0 0 42.666666-42.666666v-128h170.666667a42.666667 42.666667 0 0 0 42.666667-42.666667v-597.333333a42.666667 42.666667 0 0 0-42.666667-42.666667H128a42.666667 42.666667 0 0 0-42.666667 42.666667V640a42.666667 42.666667 0 0 0 42.666667 42.666667h170.666667z m-42.666667-341.333334V597.333333H170.666667v-256h85.333333z m85.333333 256v-256h128v85.333334h85.333334v-85.333334h128V597.333333H341.333333z m426.666667-256h85.333333V597.333333h-85.333333v-256zM384 768v-85.333333h256V768H384z"  horiz-adv-x="1024" />


    <glyph glyph-name="calculator-line" unicode="&#59013;" d="M170.666667 810.666667h682.666666a42.666667 42.666667 0 0 0 42.666667-42.666667v-768a42.666667 42.666667 0 0 0-42.666667-42.666667H170.666667a42.666667 42.666667 0 0 0-42.666667 42.666667V768a42.666667 42.666667 0 0 0 42.666667 42.666667z m42.666666-85.333334v-682.666666h597.333334V725.333333H213.333333z m85.333334-85.333333h426.666666v-170.666667H298.666667V640z m0-256h85.333333v-85.333333H298.666667v85.333333z m0-170.666667h85.333333v-85.333333H298.666667v85.333333z m170.666666 170.666667h85.333334v-85.333333h-85.333334v85.333333z m0-170.666667h85.333334v-85.333333h-85.333334v85.333333z m170.666667 170.666667h85.333333v-256h-85.333333v256z"  horiz-adv-x="1024" />


    <glyph glyph-name="briefcase-line" unicode="&#59014;" d="M298.666667 682.666667V810.666667a42.666667 42.666667 0 0 0 42.666666 42.666666h341.333334a42.666667 42.666667 0 0 0 42.666666-42.666666v-128h170.666667a42.666667 42.666667 0 0 0 42.666667-42.666667v-597.333333a42.666667 42.666667 0 0 0-42.666667-42.666667H128a42.666667 42.666667 0 0 0-42.666667 42.666667V640a42.666667 42.666667 0 0 0 42.666667 42.666667h170.666667zM170.666667 213.333333v-128h682.666666v128H170.666667z m0 85.333334h682.666666V597.333333H170.666667v-298.666666zM384 768v-85.333333h256V768H384z m85.333333-341.333333h85.333334v-85.333334h-85.333334v85.333334z"  horiz-adv-x="1024" />


    <glyph glyph-name="calendar-event-fill" unicode="&#59015;" d="M725.333333 768h170.666667a42.666667 42.666667 0 0 0 42.666667-42.666667v-682.666666a42.666667 42.666667 0 0 0-42.666667-42.666667H128a42.666667 42.666667 0 0 0-42.666667 42.666667V725.333333a42.666667 42.666667 0 0 0 42.666667 42.666667h170.666667V853.333333h85.333333v-85.333333h256V853.333333h85.333333v-85.333333zM170.666667 512v-426.666667h682.666666V512H170.666667z m85.333333-170.666667h213.333333v-170.666666H256v170.666666z"  horiz-adv-x="1024" />


    <glyph glyph-name="calendar--fill" unicode="&#59016;" d="M725.333333 768h170.666667a42.666667 42.666667 0 0 0 42.666667-42.666667v-682.666666a42.666667 42.666667 0 0 0-42.666667-42.666667H128a42.666667 42.666667 0 0 0-42.666667 42.666667V725.333333a42.666667 42.666667 0 0 0 42.666667 42.666667h170.666667V853.333333h85.333333v-85.333333h256V853.333333h85.333333v-85.333333zM170.666667 512v-426.666667h682.666666V512H170.666667z m85.333333-85.333333h85.333333v-85.333334H256v85.333334z m213.333333 0h85.333334v-85.333334h-85.333334v85.333334z m213.333334 0h85.333333v-85.333334h-85.333333v85.333334z"  horiz-adv-x="1024" />


    <glyph glyph-name="calendar-event-line" unicode="&#59017;" d="M725.333333 768h170.666667a42.666667 42.666667 0 0 0 42.666667-42.666667v-682.666666a42.666667 42.666667 0 0 0-42.666667-42.666667H128a42.666667 42.666667 0 0 0-42.666667 42.666667V725.333333a42.666667 42.666667 0 0 0 42.666667 42.666667h170.666667V853.333333h85.333333v-85.333333h256V853.333333h85.333333v-85.333333z m128-256V682.666667h-128v-85.333334h-85.333333V682.666667H384v-85.333334H298.666667V682.666667H170.666667v-170.666667h682.666666z m0-85.333333H170.666667v-341.333334h682.666666v341.333334zM256 341.333333h213.333333v-170.666666H256v170.666666z"  horiz-adv-x="1024" />


    <glyph glyph-name="calculator-fill" unicode="&#59018;" d="M170.666667 810.666667h682.666666a42.666667 42.666667 0 0 0 42.666667-42.666667v-768a42.666667 42.666667 0 0 0-42.666667-42.666667H170.666667a42.666667 42.666667 0 0 0-42.666667 42.666667V768a42.666667 42.666667 0 0 0 42.666667 42.666667z m128-426.666667v-85.333333h85.333333v85.333333H298.666667z m0-170.666667v-85.333333h85.333333v85.333333H298.666667z m170.666666 170.666667v-85.333333h85.333334v85.333333h-85.333334z m0-170.666667v-85.333333h85.333334v85.333333h-85.333334z m170.666667 170.666667v-256h85.333333v256h-85.333333zM298.666667 640v-170.666667h426.666666V640H298.666667z"  horiz-adv-x="1024" />


    <glyph glyph-name="calendar--line" unicode="&#59019;" d="M725.333333 768h170.666667a42.666667 42.666667 0 0 0 42.666667-42.666667v-682.666666a42.666667 42.666667 0 0 0-42.666667-42.666667H128a42.666667 42.666667 0 0 0-42.666667 42.666667V725.333333a42.666667 42.666667 0 0 0 42.666667 42.666667h170.666667V853.333333h85.333333v-85.333333h256V853.333333h85.333333v-85.333333z m128-341.333333H170.666667v-341.333334h682.666666v341.333334z m-213.333333 256H384v-85.333334H298.666667V682.666667H170.666667v-170.666667h682.666666V682.666667h-128v-85.333334h-85.333333V682.666667z m-384-341.333334h85.333333v-85.333333H256v85.333333z m213.333333 0h85.333334v-85.333333h-85.333334v85.333333z m213.333334 0h85.333333v-85.333333h-85.333333v85.333333z"  horiz-adv-x="1024" />


    <glyph glyph-name="calendar-fill" unicode="&#59020;" d="M85.333333 426.666667h853.333334v-384a42.666667 42.666667 0 0 0-42.666667-42.666667H128a42.666667 42.666667 0 0 0-42.666667 42.666667v384z m640 341.333333h170.666667a42.666667 42.666667 0 0 0 42.666667-42.666667v-213.333333H85.333333V725.333333a42.666667 42.666667 0 0 0 42.666667 42.666667h170.666667V853.333333h85.333333v-85.333333h256V853.333333h85.333333v-85.333333z"  horiz-adv-x="1024" />


    <glyph glyph-name="calendar-todo-fill" unicode="&#59021;" d="M725.333333 768h170.666667a42.666667 42.666667 0 0 0 42.666667-42.666667v-682.666666a42.666667 42.666667 0 0 0-42.666667-42.666667H128a42.666667 42.666667 0 0 0-42.666667 42.666667V725.333333a42.666667 42.666667 0 0 0 42.666667 42.666667h170.666667V853.333333h85.333333v-85.333333h256V853.333333h85.333333v-85.333333zM170.666667 512v-426.666667h682.666666V512H170.666667z m85.333333-85.333333h85.333333v-85.333334H256v85.333334z m0-170.666667h85.333333v-85.333333H256v85.333333z m170.666667 170.666667h341.333333v-85.333334h-341.333333v85.333334z m0-170.666667h213.333333v-85.333333h-213.333333v85.333333z"  horiz-adv-x="1024" />


    <glyph glyph-name="cloud-fill" unicode="&#59022;" d="M725.333333 597.333333a341.461333 341.461333 0 0 1-319.701333-221.44l79.957333-29.994666A256.085333 256.085333 0 0 0 981.333333 256a256 256 0 0 0-256-256H298.666667A256 256 0 0 0 213.674667 497.536a298.666667 298.666667 0 0 0 586.965333 91.434667A342.485333 342.485333 0 0 1 725.333333 597.333333z"  horiz-adv-x="1024" />


    <glyph glyph-name="calendar-todo-line" unicode="&#59023;" d="M725.333333 768h170.666667a42.666667 42.666667 0 0 0 42.666667-42.666667v-682.666666a42.666667 42.666667 0 0 0-42.666667-42.666667H128a42.666667 42.666667 0 0 0-42.666667 42.666667V725.333333a42.666667 42.666667 0 0 0 42.666667 42.666667h170.666667V853.333333h85.333333v-85.333333h256V853.333333h85.333333v-85.333333z m-85.333333-85.333333H384v-85.333334H298.666667V682.666667H170.666667v-170.666667h682.666666V682.666667h-128v-85.333334h-85.333333V682.666667z m213.333333-256H170.666667v-341.333334h682.666666v341.333334zM256 298.666667h85.333333v-85.333334H256v85.333334z m170.666667 0h341.333333v-85.333334h-341.333333v85.333334z"  horiz-adv-x="1024" />


    <glyph glyph-name="calendar-line" unicode="&#59024;" d="M725.333333 768h170.666667a42.666667 42.666667 0 0 0 42.666667-42.666667v-682.666666a42.666667 42.666667 0 0 0-42.666667-42.666667H128a42.666667 42.666667 0 0 0-42.666667 42.666667V725.333333a42.666667 42.666667 0 0 0 42.666667 42.666667h170.666667V853.333333h85.333333v-85.333333h256V853.333333h85.333333v-85.333333z m-85.333333-85.333333H384v-85.333334H298.666667V682.666667H170.666667v-170.666667h682.666666V682.666667h-128v-85.333334h-85.333333V682.666667z m213.333333-256H170.666667v-341.333334h682.666666v341.333334z"  horiz-adv-x="1024" />


    <glyph glyph-name="cloud-line" unicode="&#59025;" d="M725.333333 0H298.666667A256 256 0 0 0 213.674667 497.536a298.666667 298.666667 0 1 0 596.650666 0A256 256 0 0 0 725.333333 0z m0 512a213.333333 213.333333 0 1 1-426.410666-10.368l2.986666-63.488-59.904-21.077333A170.752 170.752 0 0 1 298.666667 85.333333h426.666666a170.666667 170.666667 0 1 1-161.962666 224.64l-80.981334 27.008A256.128 256.128 0 0 0 725.333333 512z"  horiz-adv-x="1024" />


    <glyph glyph-name="briefcase-fill" unicode="&#59026;" d="M298.666667 682.666667V810.666667a42.666667 42.666667 0 0 0 42.666666 42.666666h341.333334a42.666667 42.666667 0 0 0 42.666666-42.666666v-128h170.666667a42.666667 42.666667 0 0 0 42.666667-42.666667v-597.333333a42.666667 42.666667 0 0 0-42.666667-42.666667H128a42.666667 42.666667 0 0 0-42.666667 42.666667V640a42.666667 42.666667 0 0 0 42.666667 42.666667h170.666667zM170.666667 256v-170.666667h682.666666v170.666667H170.666667z m298.666666 170.666667v-85.333334h85.333334v85.333334h-85.333334zM384 768v-85.333333h256V768H384z"  horiz-adv-x="1024" />


    <glyph glyph-name="customer-service--line" unicode="&#59027;" d="M850.688 554.666667H896a85.333333 85.333333 0 0 0 85.333333-85.333334v-170.666666a85.333333 85.333333 0 0 0-85.333333-85.333334h-45.312A341.376 341.376 0 0 0 512-85.333333v85.333333a256 256 0 0 1 256 256V512A256 256 0 1 1 256 512v-298.666667H128a85.333333 85.333333 0 0 0-85.333333 85.333334v170.666666a85.333333 85.333333 0 0 0 85.333333 85.333334h45.312a341.376 341.376 0 0 0 677.376 0zM128 469.333333v-170.666666h42.666667v170.666666H128z m725.333333 0v-170.666666h42.666667v170.666666h-42.666667zM331.093333 222.506667l45.226667 72.362666A254.805333 254.805333 0 0 1 512 256a254.805333 254.805333 0 0 1 135.68 38.869333l45.226667-72.362666A339.754667 339.754667 0 0 0 512 170.666667a339.754667 339.754667 0 0 0-180.906667 51.84z"  horiz-adv-x="1024" />


    <glyph glyph-name="customer-service--fill" unicode="&#59028;" d="M896 554.666667a85.333333 85.333333 0 0 0 85.333333-85.333334v-170.666666a85.333333 85.333333 0 0 0-85.333333-85.333334h-45.312A341.376 341.376 0 0 0 512-85.333333v85.333333a256 256 0 0 1 256 256V512A256 256 0 1 1 256 512v-298.666667H128a85.333333 85.333333 0 0 0-85.333333 85.333334v170.666666a85.333333 85.333333 0 0 0 85.333333 85.333334h45.312a341.376 341.376 0 0 0 677.376 0H896zM331.093333 222.506667l45.226667 72.362666A254.805333 254.805333 0 0 1 512 256a254.805333 254.805333 0 0 1 135.68 38.869333l45.226667-72.362666A339.754667 339.754667 0 0 0 512 170.666667a339.754667 339.754667 0 0 0-180.906667 51.84z"  horiz-adv-x="1024" />


    <glyph glyph-name="flag--fill" unicode="&#59029;" d="M85.333333 768h816.554667a21.333333 21.333333 0 0 0 18.56-31.914667L768 469.333333l152.448-266.752a21.333333 21.333333 0 0 0-18.56-31.914666H170.666667v-213.333334H85.333333V768z"  horiz-adv-x="1024" />


    <glyph glyph-name="flag--line" unicode="&#59030;" d="M170.666667 170.666667v-213.333334H85.333333V768h816.554667a21.333333 21.333333 0 0 0 18.56-31.914667L768 469.333333l152.448-266.752a21.333333 21.333333 0 0 0-18.56-31.914666H170.666667zM170.666667 682.666667v-426.666667h620.970666l-121.941333 213.333333 121.941333 213.333334H170.666667z"  horiz-adv-x="1024" />


    <glyph glyph-name="flag-line" unicode="&#59031;" d="M213.333333 213.333333v-256H128V768h400.298667a42.666667 42.666667 0 0 0 38.144-23.594667L597.333333 682.666667h256a42.666667 42.666667 0 0 0 42.666667-42.666667v-469.333333a42.666667 42.666667 0 0 0-42.666667-42.666667h-272.298666a42.666667 42.666667 0 0 0-38.144 23.594667L512 213.333333H213.333333zM213.333333 682.666667v-384h351.402667l42.666667-85.333334H810.666667V597.333333h-266.069334l-42.666666 85.333334H213.333333z"  horiz-adv-x="1024" />


    <glyph glyph-name="flag-fill" unicode="&#59032;" d="M128 768h400.298667a42.666667 42.666667 0 0 0 38.144-23.594667L597.333333 682.666667h256a42.666667 42.666667 0 0 0 42.666667-42.666667v-469.333333a42.666667 42.666667 0 0 0-42.666667-42.666667h-272.298666a42.666667 42.666667 0 0 0-38.144 23.594667L512 213.333333H213.333333v-256H128V768z"  horiz-adv-x="1024" />


    <glyph glyph-name="customer-service-fill" unicode="&#59033;" d="M938.666667 170.581333a256.085333 256.085333 0 0 0-201.088-250.026666l-27.221334 81.664A170.794667 170.794667 0 0 1 830.506667 85.333333H725.333333a85.333333 85.333333 0 0 0-85.333333 85.333334v170.666666a85.333333 85.333333 0 0 0 85.333333 85.333334h125.354667a341.376 341.376 0 0 1-677.376 0H298.666667a85.333333 85.333333 0 0 0 85.333333-85.333334v-170.666666a85.333333 85.333333 0 0 0-85.333333-85.333334H170.666667a85.333333 85.333333 0 0 0-85.333334 85.333334v213.333333C85.333333 619.648 276.352 810.666667 512 810.666667s426.666667-191.018667 426.666667-426.666667v-213.418667z"  horiz-adv-x="1024" />


    <glyph glyph-name="global-fill" unicode="&#59034;" d="M87.466667 341.333333h233.685333a763.733333 763.733333 0 0 1 124.8-378.88A426.88 426.88 0 0 0 87.466667 341.333333z m0 85.333334a426.88 426.88 0 0 0 358.485333 378.88A763.733333 763.733333 0 0 1 321.152 426.666667H87.466667z m849.066666 0h-233.685333a763.733333 763.733333 0 0 1-124.8 378.88A426.88 426.88 0 0 0 936.533333 426.666667z m0-85.333334a426.88 426.88 0 0 0-358.485333-378.88A763.733333 763.733333 0 0 1 702.848 341.333333h233.728zM406.613333 341.333333h210.773334A678.741333 678.741333 0 0 0 512 17.408 678.741333 678.741333 0 0 0 406.613333 341.333333z m0 85.333334A678.741333 678.741333 0 0 0 512 750.592 678.741333 678.741333 0 0 0 617.386667 426.666667H406.613333z"  horiz-adv-x="1024" />


    <glyph glyph-name="customer-service-line" unicode="&#59035;" d="M938.666667 170.581333a256.085333 256.085333 0 0 0-201.088-250.026666l-27.221334 81.664A170.794667 170.794667 0 0 1 830.506667 85.333333H725.333333a85.333333 85.333333 0 0 0-85.333333 85.333334v170.666666a85.333333 85.333333 0 0 0 85.333333 85.333334h125.354667a341.376 341.376 0 0 1-677.376 0H298.666667a85.333333 85.333333 0 0 0 85.333333-85.333334v-170.666666a85.333333 85.333333 0 0 0-85.333333-85.333334H170.666667a85.333333 85.333333 0 0 0-85.333334 85.333334v213.333333C85.333333 619.648 276.352 810.666667 512 810.666667s426.666667-191.018667 426.666667-426.666667v-213.418667zM853.333333 170.666667v170.666666h-128v-170.666666h128zM170.666667 341.333333v-170.666666h128v170.666666H170.666667z"  horiz-adv-x="1024" />


    <glyph glyph-name="honour-line" unicode="&#59036;" d="M896 725.333333v-628.096a21.333333 21.333333 0 0 0-12.714667-19.541333L512-86.613333l-371.285333 164.266666A21.333333 21.333333 0 0 0 128 97.28V725.333333H42.666667V810.666667h938.666666v-85.333334h-85.333333zM213.333333 725.333333v-586.453333l298.666667-132.266667 298.666667 132.266667V725.333333H213.333333z m128-170.666666h341.333334v-85.333334H341.333333V554.666667z m0-170.666667h341.333334v-85.333333H341.333333v85.333333z"  horiz-adv-x="1024" />


    <glyph glyph-name="honour-fill" unicode="&#59037;" d="M896 725.333333v-628.096a21.333333 21.333333 0 0 0-12.714667-19.541333L512-86.613333l-371.285333 164.266666A21.333333 21.333333 0 0 0 128 97.28V725.333333H42.666667V810.666667h938.666666v-85.333334h-85.333333zM341.333333 384v-85.333333h341.333334v85.333333H341.333333z m0 170.666667v-85.333334h341.333334V554.666667H341.333333z"  horiz-adv-x="1024" />


    <glyph glyph-name="inbox-archive-line" unicode="&#59038;" d="M170.666667 768h682.666666l85.333334-170.666667v-554.666666a42.666667 42.666667 0 0 0-42.666667-42.666667H128a42.666667 42.666667 0 0 0-42.666667 42.666667V597.162667L170.666667 768z m682.666666-256H170.666667v-426.666667h682.666666V512z m-10.069333 85.333333l-42.666667 85.333334H223.445333l-42.666666-85.333334h662.485333zM554.666667 298.666667h128l-170.666667-170.666667-170.666667 170.666667h128v170.666666h85.333334v-170.666666z"  horiz-adv-x="1024" />


    <glyph glyph-name="global-line" unicode="&#59039;" d="M512-42.666667C276.352-42.666667 85.333333 148.352 85.333333 384S276.352 810.666667 512 810.666667s426.666667-191.018667 426.666667-426.666667-191.018667-426.666667-426.666667-426.666667z m-97.706667 99.541334A763.733333 763.733333 0 0 0 342.485333 341.333333H173.312a341.674667 341.674667 0 0 1 240.981333-284.458666zM427.946667 341.333333c6.442667-104.064 36.181333-201.813333 84.053333-288.085333A678.613333 678.613333 0 0 1 596.053333 341.333333h-168.106666z m422.741333 0h-169.173333a763.733333 763.733333 0 0 0-71.808-284.458666A341.674667 341.674667 0 0 1 850.688 341.333333zM173.312 426.666667h169.173333A763.733333 763.733333 0 0 0 414.293333 711.125333 341.674667 341.674667 0 0 1 173.312 426.666667z m254.677333 0h168.021334A678.613333 678.613333 0 0 1 512 714.752 678.613333 678.613333 0 0 1 427.946667 426.666667z m181.717334 284.458666A763.733333 763.733333 0 0 0 681.514667 426.666667h169.173333a341.674667 341.674667 0 0 1-240.981333 284.458666z"  horiz-adv-x="1024" />


    <glyph glyph-name="inbox-fill" unicode="&#59040;" d="M128 768h768a42.666667 42.666667 0 0 0 42.666667-42.666667v-682.666666a42.666667 42.666667 0 0 0-42.666667-42.666667H128a42.666667 42.666667 0 0 0-42.666667 42.666667V725.333333a42.666667 42.666667 0 0 0 42.666667 42.666667z m256-384a128 128 0 0 1 256 0h213.333333V682.666667H170.666667v-298.666667h213.333333z"  horiz-adv-x="1024" />


    <glyph glyph-name="inbox-archive-fill" unicode="&#59041;" d="M170.666667 768h682.666666l85.333334-170.666667v-554.666666a42.666667 42.666667 0 0 0-42.666667-42.666667H128a42.666667 42.666667 0 0 0-42.666667 42.666667V597.162667L170.666667 768z m384-469.333333v170.666666h-85.333334v-170.666666H341.333333l170.666667-170.666667 170.666667 170.666667h-128z m288.597333 298.666666l-42.666667 85.333334H223.445333l-42.666666-85.333334h662.485333z"  horiz-adv-x="1024" />


    <glyph glyph-name="links-fill" unicode="&#59042;" d="M557.226667 549.973333l60.373333-60.373333a298.666667 298.666667 0 0 0 0-422.4l-15.104-15.061333a298.666667 298.666667 0 0 0-422.4 422.4l60.373333-60.373334a213.333333 213.333333 0 1 1 301.696-301.696l15.104 15.104a213.333333 213.333333 0 0 1 0 301.653334l-60.373333 60.373333 60.373333 60.330667z m286.634666-256.469333l-60.330666 60.330667a213.333333 213.333333 0 1 1-301.696 301.696l-15.104-15.104a213.333333 213.333333 0 0 1 0-301.653334l60.373333-60.373333-60.373333-60.330667-60.330667 60.330667a298.666667 298.666667 0 0 0 0 422.4l15.104 15.061333a298.666667 298.666667 0 0 0 422.4-422.4z"  horiz-adv-x="1024" />


    <glyph glyph-name="mail-add-line" unicode="&#59043;" d="M938.666667 341.333333h-85.333334V587.178667l-338.261333-302.933334L170.666667 588.117333V85.333333h426.666666v-85.333333H128a42.666667 42.666667 0 0 0-42.666667 42.666667V725.333333a42.666667 42.666667 0 0 0 42.666667 42.666667h768a42.666667 42.666667 0 0 0 42.666667-42.666667v-384zM192.469333 682.666667l322.133334-284.245334L832.085333 682.666667H192.469333zM896 128h128v-85.333333h-128v-128h-85.333333v128h-128v85.333333h128v128h85.333333v-128z"  horiz-adv-x="1024" />


    <glyph glyph-name="inbox-line" unicode="&#59044;" d="M128 768h768a42.666667 42.666667 0 0 0 42.666667-42.666667v-682.666666a42.666667 42.666667 0 0 0-42.666667-42.666667H128a42.666667 42.666667 0 0 0-42.666667 42.666667V725.333333a42.666667 42.666667 0 0 0 42.666667 42.666667z m725.333333-469.333333h-145.749333a213.376 213.376 0 0 0-391.168 0H170.666667v-213.333334h682.666666v213.333334z m0 85.333333V682.666667H170.666667v-298.666667h213.333333a128 128 0 0 1 256 0h213.333333z"  horiz-adv-x="1024" />


    <glyph glyph-name="mail-close-fill" unicode="&#59045;" d="M938.666667 326.784A256 256 0 0 1 611.882667 0H128a42.666667 42.666667 0 0 0-42.666667 42.666667V725.333333a42.666667 42.666667 0 0 0 42.666667 42.666667h768a42.666667 42.666667 0 0 0 42.666667-42.666667v-398.549333z m-424.106667 70.741333L240.981333 629.845333 185.728 564.821333l329.386667-279.68 323.456 279.893334-55.808 64.554666-268.16-232.064zM913.706667 85.333333l90.538666-90.496-60.373333-60.373333L853.333333 25.002667l-90.496-90.538667-60.373333 60.373333L793.002667 85.333333l-90.538667 90.496 60.373333 60.373334L853.333333 145.664l90.496 90.538667 60.373334-60.373334L913.664 85.333333z"  horiz-adv-x="1024" />


    <glyph glyph-name="mail-add-fill" unicode="&#59046;" d="M938.666667 326.784A256 256 0 0 1 611.882667 0H128a42.666667 42.666667 0 0 0-42.666667 42.666667V725.333333a42.666667 42.666667 0 0 0 42.666667 42.666667h768a42.666667 42.666667 0 0 0 42.666667-42.666667v-398.549333z m-424.106667 70.741333L240.981333 629.845333 185.728 564.821333l329.386667-279.68 323.456 279.893334-55.808 64.554666-268.16-232.064zM896 128h128v-85.333333h-128v-128h-85.333333v128h-128v85.333333h128v128h85.333333v-128z"  horiz-adv-x="1024" />


    <glyph glyph-name="mail-check-fill" unicode="&#59047;" d="M938.666667 326.784A256 256 0 0 1 611.882667 0H128a42.666667 42.666667 0 0 0-42.666667 42.666667V725.333333a42.666667 42.666667 0 0 0 42.666667 42.666667h768a42.666667 42.666667 0 0 0 42.666667-42.666667v-398.549333z m-424.106667 70.741333L240.981333 629.845333 185.728 564.821333l329.386667-279.68 323.456 279.893334-55.808 64.554666-268.16-232.064zM810.666667-42.666667l-150.869334 150.869334 60.373334 60.330666L810.666667 77.994667l150.869333 150.869333 60.330667-60.330667L810.666667-42.666667z"  horiz-adv-x="1024" />


    <glyph glyph-name="links-line" unicode="&#59048;" d="M557.226667 549.973333l60.373333-60.373333a298.666667 298.666667 0 0 0 0-422.4l-15.104-15.061333a298.666667 298.666667 0 0 0-422.4 422.4l60.373333-60.373334a213.333333 213.333333 0 1 1 301.696-301.696l15.104 15.104a213.333333 213.333333 0 0 1 0 301.653334l-60.373333 60.373333 60.373333 60.330667z m286.634666-256.469333l-60.330666 60.330667a213.333333 213.333333 0 1 1-301.696 301.696l-15.104-15.104a213.333333 213.333333 0 0 1 0-301.653334l60.373333-60.373333-60.373333-60.330667-60.330667 60.330667a298.666667 298.666667 0 0 0 0 422.4l15.104 15.061333a298.666667 298.666667 0 0 0 422.4-422.4z"  horiz-adv-x="1024" />


    <glyph glyph-name="mail-check-line" unicode="&#59049;" d="M938.666667 298.666667h-85.333334V587.178667l-338.261333-302.933334L170.666667 588.117333V85.333333h426.666666v-85.333333H128a42.666667 42.666667 0 0 0-42.666667 42.666667V725.333333a42.666667 42.666667 0 0 0 42.666667 42.666667h768a42.666667 42.666667 0 0 0 42.666667-42.666667v-426.666666zM192.469333 682.666667l322.133334-284.245334L832.085333 682.666667H192.469333zM810.666667-42.666667l-150.869334 150.869334 60.373334 60.330666L810.666667 77.994667l150.869333 150.869333 60.330667-60.330667L810.666667-42.666667z"  horiz-adv-x="1024" />


    <glyph glyph-name="mail-download-line" unicode="&#59050;" d="M853.333333 587.178667l-338.261333-302.933334L170.666667 588.117333V85.333333h384v-85.333333H128a42.666667 42.666667 0 0 0-42.666667 42.666667V725.333333a42.666667 42.666667 0 0 0 42.666667 42.666667h768a42.666667 42.666667 0 0 0 42.666667-42.666667v-341.333333h-85.333334V587.178667zM832.042667 682.666667H192.469333l322.133334-284.245334L832.085333 682.666667zM853.333333 128h128l-170.666666-170.666667-170.666667 170.666667h128v170.666667h85.333333v-170.666667z"  horiz-adv-x="1024" />


    <glyph glyph-name="mail-download-fill" unicode="&#59051;" d="M938.666667 349.738667A256 256 0 0 1 588.928 0H128a42.666667 42.666667 0 0 0-42.666667 42.666667V725.333333a42.666667 42.666667 0 0 0 42.666667 42.666667h768a42.666667 42.666667 0 0 0 42.666667-42.666667v-375.594666z m-424.106667 47.786666L240.981333 629.845333 185.728 564.821333l329.386667-279.68 323.456 279.893334-55.808 64.554666-268.16-232.064zM853.333333 128h128l-170.666666-170.666667-170.666667 170.666667h128v170.666667h85.333333v-170.666667z"  horiz-adv-x="1024" />


    <glyph glyph-name="mail-close-line" unicode="&#59052;" d="M938.666667 298.666667h-85.333334V587.178667l-338.261333-302.933334L170.666667 588.117333V85.333333h469.333333v-85.333333H128a42.666667 42.666667 0 0 0-42.666667 42.666667V725.333333a42.666667 42.666667 0 0 0 42.666667 42.666667h768a42.666667 42.666667 0 0 0 42.666667-42.666667v-426.666666zM192.469333 682.666667l322.133334-284.245334L832.085333 682.666667H192.469333z m721.194667-597.333334l90.538667-90.496-60.373334-60.373333L853.333333 25.002667l-90.496-90.538667-60.373333 60.373333L793.002667 85.333333l-90.538667 90.496 60.373333 60.373334L853.333333 145.664l90.496 90.538667 60.373334-60.373334L913.664 85.333333z"  horiz-adv-x="1024" />


    <glyph glyph-name="mail-forbid-line" unicode="&#59053;" d="M853.333333 587.178667l-338.261333-302.933334L170.666667 588.117333V85.333333h301.653333a296.533333 296.533333 0 0 1 25.770667-85.333333H128a42.666667 42.666667 0 0 0-42.666667 42.666667V725.333333a42.666667 42.666667 0 0 0 42.666667 42.666667h768a42.666667 42.666667 0 0 0 42.666667-42.666667v-352.213333a297.472 297.472 0 0 1-85.333334 41.173333V587.178667zM832.042667 682.666667H192.469333l322.133334-284.245334L832.085333 682.666667z m-119.210667-670.208a128 128 0 0 1 170.709333 170.709333l-170.709333-170.666667z m-60.373333 60.373333l170.709333 170.666667a128 128 0 0 1-170.709333-170.709334zM768-85.333333a213.333333 213.333333 0 1 0 0 426.666666 213.333333 213.333333 0 0 0 0-426.666666z"  horiz-adv-x="1024" />


    <glyph glyph-name="mail-line" unicode="&#59054;" d="M128 768h768a42.666667 42.666667 0 0 0 42.666667-42.666667v-682.666666a42.666667 42.666667 0 0 0-42.666667-42.666667H128a42.666667 42.666667 0 0 0-42.666667 42.666667V725.333333a42.666667 42.666667 0 0 0 42.666667 42.666667z m725.333333-180.821333l-338.261333-302.933334L170.666667 588.117333V85.333333h682.666666V587.178667zM192.469333 682.666667l322.133334-284.245334L832.085333 682.666667H192.469333z"  horiz-adv-x="1024" />


    <glyph glyph-name="mail-lock-line" unicode="&#59055;" d="M853.333333 587.178667l-338.261333-302.933334L170.666667 588.117333V85.333333h384v-85.333333H128a42.666667 42.666667 0 0 0-42.666667 42.666667V725.333333a42.666667 42.666667 0 0 0 42.666667 42.666667h768a42.666667 42.666667 0 0 0 42.666667-42.666667v-298.666666h-85.333334V587.178667zM832.042667 682.666667H192.469333l322.133334-284.245334L832.085333 682.666667zM938.666667 170.666667h42.666666v-213.333334h-341.333333v213.333334h42.666667v42.666666a128 128 0 0 0 256 0v-42.666666z m-85.333334 0v42.666666a42.666667 42.666667 0 0 1-85.333333 0v-42.666666h85.333333z"  horiz-adv-x="1024" />


    <glyph glyph-name="mail-lock-fill" unicode="&#59056;" d="M938.666667 384a213.418667 213.418667 0 0 1-337.066667-128H554.666667v-256H128a42.666667 42.666667 0 0 0-42.666667 42.666667V725.333333a42.666667 42.666667 0 0 0 42.666667 42.666667h768a42.666667 42.666667 0 0 0 42.666667-42.666667v-341.333333z m-424.106667 13.525333L240.981333 629.845333 185.728 564.821333l329.386667-279.68 323.456 279.893334-55.808 64.554666-268.16-232.064zM938.666667 170.666667h42.666666v-213.333334h-341.333333v213.333334h42.666667v42.666666a128 128 0 0 0 256 0v-42.666666z m-85.333334 0v42.666666a42.666667 42.666667 0 0 1-85.333333 0v-42.666666h85.333333z"  horiz-adv-x="1024" />


    <glyph glyph-name="mail-forbid-fill" unicode="&#59057;" d="M651.349333 403.029333l187.221334 162.048-55.808 64.512-268.16-232.064-273.664 232.32-55.210667-65.024 328.618667-279.04A297.258667 297.258667 0 0 1 469.333333 128c0-45.824 10.325333-89.173333 28.757334-128H128a42.666667 42.666667 0 0 0-42.666667 42.666667V725.333333a42.666667 42.666667 0 0 0 42.666667 42.666667h768a42.666667 42.666667 0 0 0 42.666667-42.666667v-352.213333A297.301333 297.301333 0 0 1 768 426.666667c-41.386667 0-80.810667-8.405333-116.650667-23.637334z m61.44-390.570666a128 128 0 0 1 170.709334 170.709333l-170.666667-170.666667z m-60.330666 60.373333l170.709333 170.666667a128 128 0 0 1-170.709333-170.709334zM768-85.333333a213.333333 213.333333 0 1 0 0 426.666666 213.333333 213.333333 0 0 0 0-426.666666z"  horiz-adv-x="1024" />


    <glyph glyph-name="mail-send-fill" unicode="&#59058;" d="M85.333333 661.333333V725.632A42.666667 42.666667 0 0 0 127.658667 768h768.682666c23.381333 0 42.325333-18.986667 42.325334-42.368v-683.264a42.666667 42.666667 0 0 0-42.325334-42.368H127.658667A42.368 42.368 0 0 0 85.333333 42.368V85.333333h768V584.533333l-341.333333-307.2-426.666667 384zM0 469.333333h213.333333v-85.333333H0v85.333333z m0-213.333333h341.333333v-85.333333H0v85.333333z"  horiz-adv-x="1024" />


    <glyph glyph-name="mail-send-line" unicode="&#59059;" d="M938.666667 42.368a42.666667 42.666667 0 0 0-42.325334-42.368H127.658667A42.368 42.368 0 0 0 85.333333 42.368V85.333333h768V584.533333l-341.333333-307.2-426.666667 384V725.333333a42.666667 42.666667 0 0 0 42.666667 42.666667h768a42.666667 42.666667 0 0 0 42.666667-42.666667v-682.965333zM189.184 682.666667L512 392.106667 834.816 682.666667H189.184zM0 256h341.333333v-85.333333H0v85.333333z m0 213.333333h213.333333v-85.333333H0v85.333333z"  horiz-adv-x="1024" />


    <glyph glyph-name="mail-open-fill" unicode="&#59060;" d="M95.701333 603.562667L490.24 840.106667a42.666667 42.666667 0 0 0 43.904 0l394.154667-236.586667a21.333333 21.333333 0 0 0 10.368-18.304V42.666667a42.666667 42.666667 0 0 0-42.666667-42.666667H128a42.666667 42.666667 0 0 0-42.666667 42.666667V585.258667a21.333333 21.333333 0 0 0 10.368 18.304z m687.061334-59.306667l-268.16-232.064-273.664 232.32-55.210667-65.024 329.386667-279.68 323.456 279.893333-55.808 64.554667z"  horiz-adv-x="1024" />


    <glyph glyph-name="mail-open-line" unicode="&#59061;" d="M95.701333 603.562667L490.24 840.106667a42.666667 42.666667 0 0 0 43.904 0l394.154667-236.586667a21.333333 21.333333 0 0 0 10.368-18.304V42.666667a42.666667 42.666667 0 0 0-42.666667-42.666667H128a42.666667 42.666667 0 0 0-42.666667 42.666667V585.258667a21.333333 21.333333 0 0 0 10.368 18.304zM170.666667 548.992V85.333333h682.666666V549.034667l-341.162666 204.8L170.666667 549.034667z m343.893333-237.44l225.962667 190.421333 54.954666-65.28-280.32-236.245333-286.293333 235.946667 54.272 65.877333 231.424-190.72z"  horiz-adv-x="1024" />


    <glyph glyph-name="mail-settings-line" unicode="&#59062;" d="M853.333333 587.178667l-338.261333-302.933334L170.666667 588.117333V85.333333h426.666666v-85.333333H128a42.666667 42.666667 0 0 0-42.666667 42.666667V725.333333a42.666667 42.666667 0 0 0 42.666667 42.666667h768a42.666667 42.666667 0 0 0 42.666667-42.666667v-384h-85.333334V587.178667zM832.042667 682.666667H192.469333l322.133334-284.245334L832.085333 682.666667zM727.466667 61.952a128.725333 128.725333 0 0 0 0 46.762667l-43.264 25.002666 42.666666 73.898667 43.264-25.002667c11.861333 10.154667 25.557333 18.133333 40.533334 23.466667V256h85.333333v-49.92c14.976-5.333333 28.672-13.312 40.533333-23.466667l43.264 25.002667 42.666667-73.898667-43.264-25.002666a128.725333 128.725333 0 0 0 0-46.762667l43.264-25.002667-42.666667-73.898666-43.264 25.002666a127.872 127.872 0 0 0-40.533333-23.466666V-85.333333h-85.333333v49.92a127.872 127.872 0 0 0-40.533334 23.466666l-43.264-25.002666-42.666666 73.898666 43.264 25.002667zM853.333333 42.666667a42.666667 42.666667 0 1 1 0 85.333333 42.666667 42.666667 0 0 1 0-85.333333z"  horiz-adv-x="1024" />


    <glyph glyph-name="pie-chart--line" unicode="&#59063;" d="M469.333333 872.832c14.08 1.237333 28.288 1.834667 42.666667 1.834667C782.976 874.666667 1002.666667 654.976 1002.666667 384c0-14.378667-0.597333-28.586667-1.834667-42.666667h-64.256c-21.418667-215.594667-203.349333-384-424.576-384-235.648 0-426.666667 191.018667-426.666667 426.666667 0 221.226667 168.405333 403.157333 384 424.533333V872.874667zM469.333333 341.333333V722.688A341.376 341.376 0 0 1 512 42.666667a341.376 341.376 0 0 1 338.688 298.666666H469.333333z m445.781334 85.333334A405.461333 405.461333 0 0 1 554.666667 787.114667V426.666667h360.448z"  horiz-adv-x="1024" />


    <glyph glyph-name="mail-unread-line" unicode="&#59064;" d="M686.933333 768a214.314667 214.314667 0 0 1 0-85.333333H192.469333l322.133334-284.245334 215.424 192.853334c18.176-22.485333 40.874667-41.216 66.688-54.826667l-281.642667-252.202667L170.666667 588.117333V85.333333h682.666666V516.266667a214.314667 214.314667 0 0 1 85.333334 0V42.666667a42.666667 42.666667 0 0 0-42.666667-42.666667H128a42.666667 42.666667 0 0 0-42.666667 42.666667V725.333333a42.666667 42.666667 0 0 0 42.666667 42.666667h558.933333zM896 597.333333a128 128 0 1 0 0 256 128 128 0 0 0 0-256z"  horiz-adv-x="1024" />


    <glyph glyph-name="pie-chart--fill" unicode="&#59065;" d="M469.333333 808.533333V341.333333h467.2c-21.376-215.594667-203.306667-384-424.533333-384-235.648 0-426.666667 191.018667-426.666667 426.666667 0 221.226667 168.405333 403.157333 384 424.533333z m85.333334 64.298667C791.594667 852.48 980.437333 663.594667 1000.832 426.666667H554.666667V872.832z"  horiz-adv-x="1024" />


    <glyph glyph-name="mail-star-line" unicode="&#59066;" d="M938.666667 341.333333h-85.333334V587.178667l-338.261333-302.933334L170.666667 588.117333V85.333333h426.666666v-85.333333H128a42.666667 42.666667 0 0 0-42.666667 42.666667V725.333333a42.666667 42.666667 0 0 0 42.666667 42.666667h768a42.666667 42.666667 0 0 0 42.666667-42.666667v-384zM192.469333 682.666667l322.133334-284.245334L832.085333 682.666667H192.469333zM832-32l-112.853333-59.306667 21.546666 125.653334-91.306666 89.002666 126.165333 18.346667L832 256l56.448-114.346667 126.165333-18.346666-91.306666-88.96 21.546666-125.696L832-32z"  horiz-adv-x="1024" />


    <glyph glyph-name="mail-star-fill" unicode="&#59067;" d="M938.666667 296.789333A256 256 0 0 1 584.064 0H128a42.666667 42.666667 0 0 0-42.666667 42.666667V725.333333a42.666667 42.666667 0 0 0 42.666667 42.666667h768a42.666667 42.666667 0 0 0 42.666667-42.666667v-428.544z m-424.106667 100.736L240.981333 629.845333 185.728 564.821333l329.386667-279.68 323.456 279.893334-55.808 64.554666-268.16-232.064zM832-32l-112.853333-59.306667 21.546666 125.653334-91.306666 89.002666 126.165333 18.346667L832 256l56.448-114.346667 126.165333-18.346666-91.306666-88.96 21.546666-125.696L832-32z"  horiz-adv-x="1024" />


    <glyph glyph-name="pie-chart-box-fill" unicode="&#59068;" d="M128 768h768a42.666667 42.666667 0 0 0 42.666667-42.666667v-682.666666a42.666667 42.666667 0 0 0-42.666667-42.666667H128a42.666667 42.666667 0 0 0-42.666667 42.666667V725.333333a42.666667 42.666667 0 0 0 42.666667 42.666667z m593.066667-426.666667H469.333333V593.066667a213.418667 213.418667 0 0 1 42.666667-422.4 213.418667 213.418667 0 0 1 209.066667 170.666666z m0 85.333334A213.589333 213.589333 0 0 1 554.666667 593.066667V426.666667h166.4z"  horiz-adv-x="1024" />


    <glyph glyph-name="mail-fill" unicode="&#59069;" d="M128 768h768a42.666667 42.666667 0 0 0 42.666667-42.666667v-682.666666a42.666667 42.666667 0 0 0-42.666667-42.666667H128a42.666667 42.666667 0 0 0-42.666667 42.666667V725.333333a42.666667 42.666667 0 0 0 42.666667 42.666667z m386.56-370.474667L240.981333 629.845333 185.728 564.821333l329.386667-279.68 323.456 279.893334-55.808 64.554666-268.16-232.064z"  horiz-adv-x="1024" />


    <glyph glyph-name="pie-chart-box-line" unicode="&#59070;" d="M128 768h768a42.666667 42.666667 0 0 0 42.666667-42.666667v-682.666666a42.666667 42.666667 0 0 0-42.666667-42.666667H128a42.666667 42.666667 0 0 0-42.666667 42.666667V725.333333a42.666667 42.666667 0 0 0 42.666667 42.666667z m42.666667-85.333333v-597.333334h682.666666V682.666667H170.666667z m550.4-341.333334A213.418667 213.418667 0 0 0 298.666667 384a213.418667 213.418667 0 0 0 170.666666 209.066667V341.333333h251.733334z m0 85.333334H554.666667V593.066667a213.589333 213.589333 0 0 0 166.4-166.4z"  horiz-adv-x="1024" />


    <glyph glyph-name="mail-unread-fill" unicode="&#59071;" d="M802.261333 533.632A214.314667 214.314667 0 0 1 938.666667 516.266667V42.666667a42.666667 42.666667 0 0 0-42.666667-42.666667H128a42.666667 42.666667 0 0 0-42.666667 42.666667V725.333333a42.666667 42.666667 0 0 0 42.666667 42.666667h558.933333c-2.816-13.781333-4.266667-28.074667-4.266666-42.666667a212.48 212.48 0 0 1 50.901333-138.282666l-218.965333-189.525334-273.664 232.32-55.210667-65.024 329.386667-279.68 287.146666 248.490667zM896 597.333333a128 128 0 1 0 0 256 128 128 0 0 0 0-256z"  horiz-adv-x="1024" />


    <glyph glyph-name="mail-settings-fill" unicode="&#59072;" d="M938.666667 326.784A256 256 0 0 1 611.882667 0H128a42.666667 42.666667 0 0 0-42.666667 42.666667V725.333333a42.666667 42.666667 0 0 0 42.666667 42.666667h768a42.666667 42.666667 0 0 0 42.666667-42.666667v-398.549333z m-424.106667 70.741333L240.981333 629.845333 185.728 564.821333l329.386667-279.68 323.456 279.893334-55.808 64.554666-268.16-232.064z m212.906667-335.573333a128.725333 128.725333 0 0 0 0 46.762667l-43.264 25.002666 42.666666 73.898667 43.264-25.002667c11.861333 10.154667 25.557333 18.133333 40.533334 23.466667V256h85.333333v-49.92c14.976-5.333333 28.672-13.312 40.533333-23.466667l43.264 25.002667 42.666667-73.898667-43.264-25.002666a128.725333 128.725333 0 0 0 0-46.762667l43.264-25.002667-42.666667-73.898666-43.264 25.002666a127.872 127.872 0 0 0-40.533333-23.466666V-85.333333h-85.333333v49.92a127.872 127.872 0 0 0-40.533334 23.466666l-43.264-25.002666-42.666666 73.898666 43.264 25.002667zM853.333333 42.666667a42.666667 42.666667 0 1 1 0 85.333333 42.666667 42.666667 0 0 1 0-85.333333z"  horiz-adv-x="1024" />


    <glyph glyph-name="pie-chart-line" unicode="&#59073;" d="M512-42.666667C276.352-42.666667 85.333333 148.352 85.333333 384c0 191.061333 125.568 352.768 298.666667 407.125333v-90.624A341.461333 341.461333 0 0 1 512 42.666667a341.461333 341.461333 0 0 1 316.501333 213.333333h90.624c-54.357333-173.098667-216.064-298.666667-407.125333-298.666667z m424.533333 384H469.333333V808.533333c14.037333 1.408 28.288 2.133333 42.666667 2.133334 235.648 0 426.666667-191.018667 426.666667-426.666667 0-14.378667-0.725333-28.629333-2.133334-42.666667zM554.666667 722.688V426.666667h296.021333A341.504 341.504 0 0 1 554.666667 722.688z"  horiz-adv-x="1024" />


    <glyph glyph-name="profile-fill" unicode="&#59074;" d="M85.333333 725.632A42.666667 42.666667 0 0 0 127.658667 768h768.682666c23.381333 0 42.325333-18.986667 42.325334-42.368v-683.264a42.666667 42.666667 0 0 0-42.325334-42.368H127.658667A42.368 42.368 0 0 0 85.333333 42.368V725.632zM256 256v-85.333333h512v85.333333H256z m0 341.333333v-256h256V597.333333H256z m341.333333 0v-85.333333h170.666667V597.333333h-170.666667z m0-170.666666v-85.333334h170.666667v85.333334h-170.666667zM341.333333 512h85.333334v-85.333333H341.333333V512z"  horiz-adv-x="1024" />


    <glyph glyph-name="pie-chart-fill" unicode="&#59075;" d="M469.333333 808.533333V341.333333h467.2c-21.376-215.594667-203.306667-384-424.533333-384-235.648 0-426.666667 191.018667-426.666667 426.666667 0 221.226667 168.405333 403.157333 384 424.533333z m85.333334 0A426.794667 426.794667 0 0 0 936.533333 426.666667H554.666667V808.533333z"  horiz-adv-x="1024" />


    <glyph glyph-name="profile-line" unicode="&#59076;" d="M85.333333 725.632A42.666667 42.666667 0 0 0 127.658667 768h768.682666c23.381333 0 42.325333-18.986667 42.325334-42.368v-683.264a42.666667 42.666667 0 0 0-42.325334-42.368H127.658667A42.368 42.368 0 0 0 85.333333 42.368V725.632zM170.666667 682.666667v-597.333334h682.666666V682.666667H170.666667z m85.333333-85.333334h256v-256H256V597.333333z m85.333333-85.333333v-85.333333h85.333334V512H341.333333z m-85.333333-256h512v-85.333333H256v85.333333z m341.333333 341.333333h170.666667v-85.333333h-170.666667V597.333333z m0-170.666666h170.666667v-85.333334h-170.666667v85.333334z"  horiz-adv-x="1024" />


    <glyph glyph-name="projector--fill" unicode="&#59077;" d="M938.666667 85.333333v-85.333333h-85.333334v85.333333H170.666667v-85.333333H85.333333v85.333333a42.666667 42.666667 0 0 0-42.666666 42.666667V640a42.666667 42.666667 0 0 0 42.666666 42.666667h418.56a276.522667 276.522667 0 0 0 200.106667 85.333333 276.48 276.48 0 0 0 200.106667-85.333333H938.666667a42.666667 42.666667 0 0 0 42.666666-42.666667v-512a42.666667 42.666667 0 0 0-42.666666-42.666667z m-234.666667 213.333334a192 192 0 1 1 0 384 192 192 0 0 1 0-384z m0 85.333333a106.666667 106.666667 0 1 0 0 213.333333 106.666667 106.666667 0 0 0 0-213.333333zM170.666667 341.333333v-85.333333h85.333333v85.333333H170.666667z m170.666666 0v-85.333333h85.333334v85.333333H341.333333z"  horiz-adv-x="1024" />


    <glyph glyph-name="printer-line" unicode="&#59078;" d="M256 85.333333H128a42.666667 42.666667 0 0 0-42.666667 42.666667V554.666667a42.666667 42.666667 0 0 0 42.666667 42.666666h128V768a42.666667 42.666667 0 0 0 42.666667 42.666667h426.666666a42.666667 42.666667 0 0 0 42.666667-42.666667v-170.666667h128a42.666667 42.666667 0 0 0 42.666667-42.666666v-426.666667a42.666667 42.666667 0 0 0-42.666667-42.666667h-128v-85.333333a42.666667 42.666667 0 0 0-42.666667-42.666667H298.666667a42.666667 42.666667 0 0 0-42.666667 42.666667v85.333333z m0 85.333334v42.666666a42.666667 42.666667 0 0 0 42.666667 42.666667h426.666666a42.666667 42.666667 0 0 0 42.666667-42.666667v-42.666666h85.333333V512H170.666667v-341.333333h85.333333zM341.333333 725.333333v-128h341.333334V725.333333H341.333333z m0-554.666666v-128h341.333334v128H341.333333z m-128 298.666666h128v-85.333333H213.333333v85.333333z"  horiz-adv-x="1024" />


    <glyph glyph-name="projector-fill" unicode="&#59079;" d="M474.112 384a192.085333 192.085333 0 0 1 374.442667 0H938.666667v-341.333333a42.666667 42.666667 0 0 0-42.666667-42.666667H128a42.666667 42.666667 0 0 0-42.666667 42.666667v341.333333h388.778667zM213.333333 213.333333h85.333334v-85.333333H213.333333v85.333333z m448 106.666667a106.666667 106.666667 0 1 0 0 213.333333 106.666667 106.666667 0 0 0 0-213.333333zM474.112 469.333333H85.333333V725.333333a42.666667 42.666667 0 0 0 42.666667 42.666667h768a42.666667 42.666667 0 0 0 42.666667-42.666667v-256h-90.112a192.085333 192.085333 0 0 1-374.442667 0z"  horiz-adv-x="1024" />


    <glyph glyph-name="printer-fill" unicode="&#59080;" d="M298.666667 170.666667h426.666666v-213.333334H298.666667v213.333334z m512-128v213.333333H213.333333v-213.333333H128a42.666667 42.666667 0 0 0-42.666667 42.666666V512a42.666667 42.666667 0 0 0 42.666667 42.666667h768a42.666667 42.666667 0 0 0 42.666667-42.666667v-426.666667a42.666667 42.666667 0 0 0-42.666667-42.666666h-85.333333zM213.333333 469.333333v-85.333333h128v85.333333H213.333333z m85.333334 341.333334h426.666666a42.666667 42.666667 0 0 0 42.666667-42.666667v-128H256V768a42.666667 42.666667 0 0 0 42.666667 42.666667z"  horiz-adv-x="1024" />


    <glyph glyph-name="projector-line" unicode="&#59081;" d="M128 768h768a42.666667 42.666667 0 0 0 42.666667-42.666667v-682.666666a42.666667 42.666667 0 0 0-42.666667-42.666667H128a42.666667 42.666667 0 0 0-42.666667 42.666667V725.333333a42.666667 42.666667 0 0 0 42.666667 42.666667z m346.709333-384H170.666667v-298.666667h682.666666v298.666667h-48.042666a170.752 170.752 0 0 0-330.581334 0z m0 85.333333a170.752 170.752 0 0 0 330.581334 0H853.333333V682.666667H170.666667v-213.333334h304.042666zM640 341.333333a85.333333 85.333333 0 1 1 0 170.666667 85.333333 85.333333 0 0 1 0-170.666667z m-384-85.333333h85.333333v-85.333333H256v85.333333z"  horiz-adv-x="1024" />


    <glyph glyph-name="reply-fill" unicode="&#59082;" d="M469.333333 298.666667v-213.333334L42.666667 426.666667l426.666666 341.333333v-213.333333c235.648 0 426.666667-191.018667 426.666667-426.666667 0-11.648-0.426667-23.168-1.365333-34.56A383.957333 383.957333 0 0 1 554.666667 298.666667h-85.333334z"  horiz-adv-x="1024" />


    <glyph glyph-name="record-mail-fill" unicode="&#59083;" d="M415.70944 256h192.597333a234.666667 234.666667 0 1 0 181.034667-85.333333h-554.666667a234.666667 234.666667 0 1 0 181.034667 85.333333zM234.674773 341.333333a64 64 0 1 1 0 128 64 64 0 0 1 0-128z m554.666667 0a64 64 0 1 1 0 128 64 64 0 0 1 0-128z"  horiz-adv-x="1024" />


    <glyph glyph-name="projector--line" unicode="&#59084;" d="M938.666667 85.333333v-85.333333h-85.333334v85.333333H170.666667v-85.333333H85.333333v85.333333a42.666667 42.666667 0 0 0-42.666666 42.666667V640a42.666667 42.666667 0 0 0 42.666666 42.666667h449.194667A255.36 255.36 0 0 0 725.333333 768c75.818667 0 143.957333-32.981333 190.805334-85.333333H938.666667a42.666667 42.666667 0 0 0 42.666666-42.666667v-512a42.666667 42.666667 0 0 0-42.666666-42.666667zM483.882667 597.333333H128v-426.666666h768v150.528A256 256 0 0 0 483.882667 597.333333zM725.333333 341.333333a170.666667 170.666667 0 1 1 0 341.333334 170.666667 170.666667 0 0 1 0-341.333334zM213.333333 341.333333h85.333334v-85.333333H213.333333v85.333333z m128 0h85.333334v-85.333333H341.333333v85.333333z"  horiz-adv-x="1024" />


    <glyph glyph-name="attachment-fill" unicode="&#59085;" d="M895.872 768.341333L896-0.341333a42.666667 42.666667 0 0 0-42.368-42.325334H170.368A42.368 42.368 0 0 0 128-0.341333V768.341333A42.666667 42.666667 0 0 0 170.368 810.666667h683.093333c23.424 0 42.410667-18.944 42.410667-42.325334zM384 341.333333V512a42.666667 42.666667 0 1 0 85.333333 0v-170.666667a42.666667 42.666667 0 0 1 85.333334 0V512a128 128 0 0 1-256 0v-170.666667a213.333333 213.333333 0 0 1 426.666666 0V554.666667h-85.333333v-213.333334a128 128 0 0 0-256 0z"  horiz-adv-x="1024" />


    <glyph glyph-name="reply-line" unicode="&#59086;" d="M512 298.666667v-234.666667L64 426.666667 512 789.333333V554.666667c235.648 0 426.666667-191.018667 426.666667-426.666667 0-11.648-0.426667-23.168-1.365334-34.56A383.957333 383.957333 0 0 1 597.333333 298.666667h-85.333333z m-85.333333-55.808V384h170.666666c60.586667 0 119.082667-11.562667 173.098667-32.981333A340.565333 340.565333 0 0 1 512 469.333333h-85.333333V610.474667L199.637333 426.666667 426.666667 242.858667z"  horiz-adv-x="1024" />


    <glyph glyph-name="record-mail-line" unicode="&#59087;" d="M608.306773 256a234.666667 234.666667 0 1 0 181.034667-85.333333h-554.666667a234.666667 234.666667 0 1 0 181.034667 85.333333h192.597333zM234.674773 256a149.333333 149.333333 0 1 1 0 298.666667 149.333333 149.333333 0 0 1 0-298.666667z m554.666667 0a149.333333 149.333333 0 1 1 0 298.666667 149.333333 149.333333 0 0 1 0-298.666667z"  horiz-adv-x="1024" />


    <glyph glyph-name="send-plane--line" unicode="&#59088;" d="M159.616 835.925333l787.712-433.237333a21.333333 21.333333 0 0 0 0-37.376L159.616-67.925333A21.333333 21.333333 0 0 0 128-49.237333V817.237333a21.333333 21.333333 0 0 0 31.616 18.688zM213.333333 341.333333v-282.325333L804.266667 384 213.333333 708.992V426.666667h213.333334v-85.333334H213.333333z"  horiz-adv-x="1024" />


    <glyph glyph-name="slideshow--fill" unicode="&#59089;" d="M554.666667 170.666667v-128h213.333333v-85.333334H256v85.333334h213.333333v128H170.666667a42.666667 42.666667 0 0 0-42.666667 42.666666V725.333333H85.333333V810.666667h853.333334v-85.333334h-42.666667v-512a42.666667 42.666667 0 0 0-42.666667-42.666666h-298.666666zM426.666667 640v-298.666667l213.333333 149.333334L426.666667 640z"  horiz-adv-x="1024" />


    <glyph glyph-name="bar-chart-grouped-fill" unicode="&#59090;" d="M85.333333 384h85.333334v-384H85.333333v384z m128-85.333333h85.333334v-298.666667H213.333333v298.666667z m469.333334 256h85.333333v-554.666667h-85.333333V554.666667z m128-85.333334h85.333333v-469.333333h-85.333333V469.333333zM384 810.666667h85.333333v-810.666667H384V810.666667z m128-85.333334h85.333333v-725.333333h-85.333333V725.333333z"  horiz-adv-x="1024" />


    <glyph glyph-name="send-plane-line" unicode="&#59091;" d="M82.048 496.213333c-21.76 8.746667-21.504 21.76 1.450667 29.397334l814.336 271.445333c22.570667 7.509333 35.498667-5.12 29.184-27.221333l-232.704-814.336c-6.4-22.570667-20.266667-23.594667-30.592-2.986667L469.333333 341.333333 82.048 496.213333z m208.64 8.533334l240.469333-96.213334 129.706667-259.498666 151.296 529.493333L290.645333 504.746667z"  horiz-adv-x="1024" />


    <glyph glyph-name="send-plane-fill" unicode="&#59092;" d="M83.029333 498.56c-22.272 7.424-22.485333 19.413333 0.426667 27.050667l814.378667 271.445333c22.570667 7.509333 35.498667-5.12 29.184-27.221333l-232.704-814.336c-6.4-22.570667-19.413333-23.338667-28.970667-1.92L512 298.666667l256 341.333333-341.333333-256-343.637334 114.56z"  horiz-adv-x="1024" />


    <glyph glyph-name="send-plane--fill" unicode="&#59093;" d="M128 341.333333h256v85.333334H128V817.237333a21.333333 21.333333 0 0 0 31.616 18.688l787.712-433.237333a21.333333 21.333333 0 0 0 0-37.376L159.616-67.925333A21.333333 21.333333 0 0 0 128-49.237333V341.333333z"  horiz-adv-x="1024" />


    <glyph glyph-name="slideshow--line" unicode="&#59094;" d="M554.666667 170.666667v-128h213.333333v-85.333334H256v85.333334h213.333333v128H170.666667a42.666667 42.666667 0 0 0-42.666667 42.666666V725.333333H85.333333V810.666667h853.333334v-85.333334h-42.666667v-512a42.666667 42.666667 0 0 0-42.666667-42.666666h-298.666666z m-341.333334 85.333333h597.333334V725.333333H213.333333v-469.333333z m213.333334 384l213.333333-149.333333-213.333333-149.333334V640z"  horiz-adv-x="1024" />


    <glyph glyph-name="slideshow--fill1" unicode="&#59095;" d="M554.666667 128v-85.333333h170.666666v-85.333334H298.666667v85.333334h170.666666v85.333333H128a42.666667 42.666667 0 0 0-42.666667 42.666667V725.333333a42.666667 42.666667 0 0 0 42.666667 42.666667h768a42.666667 42.666667 0 0 0 42.666667-42.666667v-554.666666a42.666667 42.666667 0 0 0-42.666667-42.666667h-341.333333zM426.666667 576v-256l213.333333 128-213.333333 128z"  horiz-adv-x="1024" />


    <glyph glyph-name="slideshow-fill" unicode="&#59096;" d="M554.666667 0v-85.333333h-85.333334v85.333333H128a42.666667 42.666667 0 0 0-42.666667 42.666667V640h853.333334v-597.333333a42.666667 42.666667 0 0 0-42.666667-42.666667h-341.333333zM341.333333 469.333333a128 128 0 1 1 128-128H341.333333v128z m213.333334 0v-85.333333h256v85.333333h-256z m0-170.666666v-85.333334h256v85.333334h-256zM85.333333 768h853.333334v-85.333333H85.333333V768z"  horiz-adv-x="1024" />


    <glyph glyph-name="stack-line" unicode="&#59097;" d="M856.874667 247.466667l51.285333-30.762667a21.333333 21.333333 0 0 0 0-36.608l-374.186667-224.512a42.666667 42.666667 0 0 0-43.946666 0l-374.186667 224.512a21.333333 21.333333 0 0 0 0 36.608l51.285333 30.762667L512 40.533333l344.874667 206.933334z m0 200.533333l51.285333-30.762667a21.333333 21.333333 0 0 0 0-36.608L512 142.933333l-396.16 237.696a21.333333 21.333333 0 0 0 0 36.608l51.285333 30.762667L512 241.066667l344.874667 206.933333z m-322.944 392.149333l374.229333-224.512a21.333333 21.333333 0 0 0 0-36.608L512 341.333333 115.84 579.029333a21.333333 21.333333 0 0 0 0 36.608l374.186667 224.512a42.666667 42.666667 0 0 0 43.946666 0zM512 753.834667L251.178667 597.333333 512 440.832 772.821333 597.333333 512 753.834667z"  horiz-adv-x="1024" />


    <glyph glyph-name="slideshow--fill2" unicode="&#59098;" d="M348.586667 768A128.042667 128.042667 0 0 0 469.333333 853.333333h85.333334c55.722667 0 103.125333-35.626667 120.746666-85.333333H896a42.666667 42.666667 0 0 0 42.666667-42.666667v-682.666666a42.666667 42.666667 0 0 0-42.666667-42.666667H128a42.666667 42.666667 0 0 0-42.666667 42.666667V725.333333a42.666667 42.666667 0 0 0 42.666667 42.666667h220.586667zM426.666667 512v-256l213.333333 128-213.333333 128z m42.666666 256a42.666667 42.666667 0 0 1 0-85.333333h85.333334a42.666667 42.666667 0 0 1 0 85.333333h-85.333334z"  horiz-adv-x="1024" />


    <glyph glyph-name="slideshow--line1" unicode="&#59099;" d="M348.586667 768A128.042667 128.042667 0 0 0 469.333333 853.333333h85.333334c55.722667 0 103.125333-35.626667 120.746666-85.333333H896a42.666667 42.666667 0 0 0 42.666667-42.666667v-682.666666a42.666667 42.666667 0 0 0-42.666667-42.666667H128a42.666667 42.666667 0 0 0-42.666667 42.666667V725.333333a42.666667 42.666667 0 0 0 42.666667 42.666667h220.586667zM170.666667 682.666667v-597.333334h682.666666V682.666667h-177.92A128.042667 128.042667 0 0 0 554.666667 597.333333h-85.333334a128.042667 128.042667 0 0 0-120.746666 85.333334H170.666667z m298.666666 85.333333a42.666667 42.666667 0 0 1 0-85.333333h85.333334a42.666667 42.666667 0 0 1 0 85.333333h-85.333334z m-42.666666-256l213.333333-128-213.333333-128V512z"  horiz-adv-x="1024" />


    <glyph glyph-name="slideshow-line" unicode="&#59100;" d="M554.666667 0v-85.333333h-85.333334v85.333333H128a42.666667 42.666667 0 0 0-42.666667 42.666667V640h853.333334v-597.333333a42.666667 42.666667 0 0 0-42.666667-42.666667h-341.333333z m-384 85.333333h682.666666V554.666667H170.666667v-469.333334z m384 384h213.333333v-85.333333h-213.333333v85.333333z m0-170.666666h213.333333v-85.333334h-213.333333v85.333334z m-170.666667 170.666666v-128h128a128 128 0 1 0-128 128zM85.333333 768h853.333334v-85.333333H85.333333V768z"  horiz-adv-x="1024" />


    <glyph glyph-name="stack-fill" unicode="&#59101;" d="M856.874667 448l51.285333-30.762667a21.333333 21.333333 0 0 0 0-36.608L512 142.933333l-396.16 237.696a21.333333 21.333333 0 0 0 0 36.608l51.285333 30.762667L512 241.066667l344.874667 206.933333z m0-200.533333l51.285333-30.762667a21.333333 21.333333 0 0 0 0-36.608l-374.186667-224.512a42.666667 42.666667 0 0 0-43.946666 0l-374.186667 224.512a21.333333 21.333333 0 0 0 0 36.608l51.285333 30.762667L512 40.533333l344.874667 206.933334zM533.930667 840.149333l374.229333-224.512a21.333333 21.333333 0 0 0 0-36.608L512 341.333333 115.84 579.029333a21.333333 21.333333 0 0 0 0 36.608l374.186667 224.512a42.666667 42.666667 0 0 0 43.946666 0z"  horiz-adv-x="1024" />


    <glyph glyph-name="window-fill" unicode="&#59102;" d="M128 768h768a42.666667 42.666667 0 0 0 42.666667-42.666667v-682.666666a42.666667 42.666667 0 0 0-42.666667-42.666667H128a42.666667 42.666667 0 0 0-42.666667 42.666667V725.333333a42.666667 42.666667 0 0 0 42.666667 42.666667z m725.333333-298.666667H170.666667v-384h682.666666v384zM213.333333 640v-85.333333h85.333334V640H213.333333z m170.666667 0v-85.333333h85.333333V640H384z"  horiz-adv-x="1024" />


    <glyph glyph-name="window--fill" unicode="&#59103;" d="M128 768h768a42.666667 42.666667 0 0 0 42.666667-42.666667v-682.666666a42.666667 42.666667 0 0 0-42.666667-42.666667H128a42.666667 42.666667 0 0 0-42.666667 42.666667V725.333333a42.666667 42.666667 0 0 0 42.666667 42.666667z m725.333333-298.666667H170.666667v-384h682.666666v384z m-213.333333 170.666667v-85.333333h170.666667V640h-170.666667z"  horiz-adv-x="1024" />


    <glyph glyph-name="window-line" unicode="&#59104;" d="M128 768h768a42.666667 42.666667 0 0 0 42.666667-42.666667v-682.666666a42.666667 42.666667 0 0 0-42.666667-42.666667H128a42.666667 42.666667 0 0 0-42.666667 42.666667V725.333333a42.666667 42.666667 0 0 0 42.666667 42.666667z m725.333333-341.333333H170.666667v-341.333334h682.666666v341.333334z m0 85.333333V682.666667H170.666667v-170.666667h682.666666zM384 640h85.333333v-85.333333H384V640zM213.333333 640h85.333334v-85.333333H213.333333V640z"  horiz-adv-x="1024" />


    <glyph glyph-name="window--line" unicode="&#59105;" d="M128 768h768a42.666667 42.666667 0 0 0 42.666667-42.666667v-682.666666a42.666667 42.666667 0 0 0-42.666667-42.666667H128a42.666667 42.666667 0 0 0-42.666667 42.666667V725.333333a42.666667 42.666667 0 0 0 42.666667 42.666667z m725.333333-341.333333H170.666667v-341.333334h682.666666v341.333334z m0 85.333333V682.666667H170.666667v-170.666667h682.666666z m-213.333333 128h170.666667v-85.333333h-170.666667V640z"  horiz-adv-x="1024" />


    <glyph glyph-name="slideshow--line2" unicode="&#59106;" d="M554.666667 128v-85.333333h170.666666v-85.333334H298.666667v85.333334h170.666666v85.333333H128a42.666667 42.666667 0 0 0-42.666667 42.666667V725.333333a42.666667 42.666667 0 0 0 42.666667 42.666667h768a42.666667 42.666667 0 0 0 42.666667-42.666667v-554.666666a42.666667 42.666667 0 0 0-42.666667-42.666667h-341.333333zM170.666667 682.666667v-469.333334h682.666666V682.666667H170.666667z m256-106.666667l213.333333-128-213.333333-128v256z"  horiz-adv-x="1024" />


    <glyph glyph-name="chat--fill" unicode="&#59107;" d="M311.082667 7.509333L85.333333-42.666667l50.176 225.749334A424.789333 424.789333 0 0 0 85.333333 384C85.333333 619.648 276.352 810.666667 512 810.666667s426.666667-191.018667 426.666667-426.666667-191.018667-426.666667-426.666667-426.666667a424.789333 424.789333 0 0 0-200.917333 50.176z"  horiz-adv-x="1024" />


    <glyph glyph-name="chat--line" unicode="&#59108;" d="M426.666667 768h170.666666a341.333333 341.333333 0 1 0 0-682.666667v-149.333333c-213.333333 85.333333-512 213.333333-512 490.666667a341.333333 341.333333 0 0 0 341.333334 341.333333z m85.333333-597.333333h85.333333a256 256 0 1 1 0 512h-170.666666a256 256 0 0 1-256-256c0-154.026667 105.045333-254.549333 341.333333-361.813334V170.666667z"  horiz-adv-x="1024" />


    <glyph glyph-name="chat--fill1" unicode="&#59109;" d="M616.533333 85.333333L512-64 407.466667 85.333333H128a42.666667 42.666667 0 0 0-42.666667 42.666667V725.333333a42.666667 42.666667 0 0 0 42.666667 42.666667h768a42.666667 42.666667 0 0 0 42.666667-42.666667v-597.333333a42.666667 42.666667 0 0 0-42.666667-42.666667h-279.466667z"  horiz-adv-x="1024" />


    <glyph glyph-name="chat--line1" unicode="&#59110;" d="M616.533333 85.333333L512-64 407.466667 85.333333H128a42.666667 42.666667 0 0 0-42.666667 42.666667V725.333333a42.666667 42.666667 0 0 0 42.666667 42.666667h768a42.666667 42.666667 0 0 0 42.666667-42.666667v-597.333333a42.666667 42.666667 0 0 0-42.666667-42.666667h-279.466667z m-44.416 85.333334H853.333333V682.666667H170.666667v-512h281.216L512 84.821333 572.117333 170.666667z"  horiz-adv-x="1024" />


    </font>
</defs>
</svg>
