<?xml version="1.0" standalone="no"?><!DOCTYPE svg PUBLIC "-//W3C//DTD SVG 1.1//EN" "http://www.w3.org/Graphics/SVG/1.1/DTD/svg11.dtd"><svg t="1564647641341" class="icon" viewBox="0 0 1024 1024" version="1.1" xmlns="http://www.w3.org/2000/svg" p-id="3305" xmlns:xlink="http://www.w3.org/1999/xlink" width="200" height="200"><defs><style type="text/css"></style></defs><path d="M510.75 63.249C263.465 63.249 63 263.715 63 510.999c0 247.287 200.466 447.752 447.75 447.752 247.287 0 447.75-200.466 447.75-447.752 0-247.284-200.464-447.75-447.75-447.75z m0 856.566c-225.781 0-408.813-183.033-408.813-408.815 0-225.781 183.032-408.813 408.813-408.813 225.783 0 408.815 183.033 408.815 408.813 0 225.782-183.032 408.815-408.815 408.815z m116.804-447.75a77.614 77.614 0 0 0 29.202-5.682c-28.533-11.553-48.669-39.509-48.669-72.188 0-32.676 20.136-60.633 48.669-72.188a77.606 77.606 0 0 0-29.202-5.682c-43.005 0-77.87 34.864-77.87 77.87 0.001 43.009 34.865 77.87 77.87 77.87z m77.87 136.273L588.621 725.143 374.478 510.999 161.985 723.494a409.147 409.147 0 0 0 23.696 34.703l0.002 0.002 188.795-188.797L685.324 880.25l0.004-0.002a406.913 406.913 0 0 0 37.915-20.482L617.82 754.344l87.603-87.605 112.94 112.94c9.124-10.435 17.745-21.288 25.783-32.618L705.424 608.338z" p-id="3306"></path></svg>